<svg width="80" height="80" viewBox="0 0 80 80" fill="none" xmlns="http://www.w3.org/2000/svg">
<path d="M39.9806 17.8131C52.2034 17.8131 62.1481 27.7577 62.1481 39.9806C62.1481 52.2034 52.2034 62.148 39.9806 62.148C27.7578 62.148 17.8131 52.2034 17.8131 39.9806C17.8131 27.7577 27.7578 17.8131 39.9806 17.8131ZM39.9806 15.3633C35.1117 15.3633 30.3522 16.8071 26.304 19.512C22.2557 22.217 19.1004 26.0617 17.2372 30.5599C15.3739 35.0582 14.8864 40.0079 15.8363 44.7832C16.7862 49.5585 19.1307 53.9448 22.5735 57.3876C26.0163 60.8304 30.4027 63.175 35.178 64.1249C39.9533 65.0747 44.903 64.5872 49.4012 62.724C53.8994 60.8608 57.7441 57.7055 60.4491 53.6572C63.1541 49.6089 64.5979 44.8494 64.5979 39.9806C64.5979 33.4517 62.0043 27.1902 57.3876 22.5735C52.771 17.9569 46.5095 15.3633 39.9806 15.3633Z" fill="#56A47A"/>
<path d="M40.051 25.1488C42.9984 25.1488 45.8796 26.0228 48.3303 27.6603C50.781 29.2978 52.6911 31.6252 53.819 34.3483C54.947 37.0714 55.2421 40.0678 54.6671 42.9585C54.0921 45.8493 52.6727 48.5047 50.5886 50.5888C48.5044 52.673 45.8491 54.0923 42.9583 54.6673C40.0675 55.2423 37.0711 54.9472 34.3481 53.8193C31.625 52.6913 29.2976 50.7813 27.6601 48.3306C26.0226 45.8799 25.1486 42.9986 25.1486 40.0512C25.153 36.1002 26.7244 32.3123 29.5182 29.5185C32.312 26.7247 36.1 25.1532 40.051 25.1488ZM40.051 22.699C36.619 22.699 33.2642 23.7167 30.4106 25.6234C27.557 27.53 25.333 30.2401 24.0196 33.4108C22.7062 36.5815 22.3626 40.0705 23.0322 43.4365C23.7017 46.8025 25.3543 49.8944 27.7811 52.3211C30.2079 54.7479 33.2997 56.4005 36.6657 57.0701C40.0317 57.7396 43.5207 57.396 46.6914 56.0826C49.8621 54.7693 52.5722 52.5452 54.4789 49.6916C56.3855 46.8381 57.4032 43.4832 57.4032 40.0512C57.4032 35.4491 55.5751 31.0355 52.3209 27.7813C49.0667 24.5272 44.6531 22.699 40.051 22.699Z" fill="#56A47A"/>
<path d="M45.6926 46.7558C45.2404 47.5621 44.5859 48.2366 43.7936 48.7129C42.9632 49.2333 41.9634 49.529 40.7943 49.6001V51.78H39.3424V49.5931C37.7092 49.451 36.3819 48.9265 35.3604 48.0194C34.8639 47.5913 34.467 47.0597 34.1975 46.462C33.9281 45.8642 33.7926 45.2148 33.8006 44.5592H36.4095C36.4713 45.2885 36.7686 45.9779 37.2566 46.5232C37.7512 47.0769 38.4465 47.4266 39.3424 47.5724V40.8513C38.35 40.6157 37.378 40.301 36.4358 39.9101C35.6887 39.578 35.0399 39.0589 34.5521 38.4028C34.0317 37.7219 33.7715 36.8074 33.7715 35.6596C33.7715 34.2063 34.279 33.0067 35.294 32.061C36.309 31.1152 37.6585 30.586 39.3424 30.4734V28.2354H40.7943V30.4679C42.3177 30.5934 43.5463 31.082 44.4801 31.9336C45.4139 32.7853 45.9519 33.8926 46.094 35.2554H43.485C43.3895 34.6145 43.0996 34.0184 42.6545 33.5475C42.1598 33.0211 41.5092 32.6674 40.7985 32.5385V39.1032C41.783 39.3434 42.7492 39.6533 43.6898 40.0305C44.4407 40.3497 45.0916 40.8656 45.5736 41.5239C46.0838 42.2049 46.3394 43.1276 46.3403 44.2921C46.3397 45.1553 46.1166 46.0039 45.6926 46.7558ZM37.0559 37.5419C37.5754 38.0088 38.3376 38.3945 39.3424 38.699V32.4859C38.4095 32.5781 37.6649 32.8785 37.1085 33.3869C36.5521 33.8953 36.2753 34.6081 36.2781 35.5253C36.2799 36.4047 36.5392 37.0769 37.0559 37.5419ZM43.0628 46.5537C43.6066 45.9812 43.9047 45.2186 43.8933 44.4291C43.8933 43.5507 43.6243 42.8734 43.0864 42.3973C42.5484 41.9212 41.7863 41.5401 40.7999 41.254V47.6056C41.765 47.4958 42.5194 47.1452 43.0628 46.5537Z" fill="#56A47A"/>
</svg>
