<svg width="82" height="83" viewBox="0 0 82 83" fill="none" xmlns="http://www.w3.org/2000/svg">
<path opacity="0.2" d="M54 0.550659H28C12.536 0.550659 0 13.0867 0 28.5507V54.5507C0 70.0146 12.536 82.5507 28 82.5507H54C69.464 82.5507 82 70.0146 82 54.5507V28.5507C82 13.0867 69.464 0.550659 54 0.550659Z" fill="#D7F9D3"/>
<path d="M36.888 24.2205C39.5047 24.2205 42.0626 25.0011 44.2384 26.4637C46.4141 27.9264 48.1098 30.0052 49.1111 32.4374C50.1124 34.8696 50.3744 37.546 49.8638 40.1279C49.3532 42.7099 48.093 45.0816 46.2426 46.943C44.3923 48.8044 42.0348 50.072 39.4683 50.5855C36.9018 51.0989 34.2416 50.8352 31.8242 49.8275C29.4067 48.8199 27.3405 47.1137 25.8869 44.9247C24.4333 42.7357 23.6576 40.1621 23.6578 37.5296C23.662 34.0008 25.0572 30.6179 27.5375 28.1228C30.0178 25.6277 33.3805 24.2243 36.888 24.2205ZM36.888 22.0326C33.8411 22.0324 30.8625 22.9411 28.329 24.644C25.7956 26.3469 23.8209 28.7673 22.6548 31.5993C21.4887 34.4313 21.1835 37.5476 21.7779 40.554C22.3722 43.5605 23.8394 46.3221 25.9939 48.4896C28.1484 50.6572 30.8934 52.1333 33.8817 52.7312C36.8701 53.3292 39.9676 53.0222 42.7825 51.849C45.5974 50.6758 48.0033 48.6892 49.6959 46.1403C51.3885 43.5915 52.2918 40.5949 52.2916 37.5296C52.2916 33.4195 50.6687 29.4778 47.78 26.5716C44.8912 23.6653 40.9733 22.0326 36.888 22.0326Z" fill="#56A47A"/>
<path d="M36.8879 34.2483C39.765 34.2483 42.4181 36.1502 43.9638 37.5296C42.4168 38.9114 39.765 40.812 36.8879 40.812C34.0108 40.812 31.3566 38.9102 29.8108 37.5296C31.3578 36.1489 34.0096 34.2483 36.8879 34.2483ZM36.8879 32.0665C31.2831 32.0665 26.7397 37.5356 26.7397 37.5356C26.7397 37.5356 31.2831 43.0059 36.8879 43.0059C42.4928 43.0059 47.0349 37.5356 47.0349 37.5356C47.0349 37.5356 42.4916 32.0665 36.8879 32.0665Z" fill="#56A47A"/>
<path d="M36.8882 35.412C37.3039 35.4118 37.7104 35.5356 38.0563 35.7678C38.4021 35.9999 38.6718 36.33 38.8312 36.7164C38.9906 37.1027 39.0325 37.5279 38.9517 37.9382C38.8709 38.3485 38.671 38.7255 38.3773 39.0215C38.0836 39.3176 37.7092 39.5193 37.3015 39.6013C36.8938 39.6833 36.471 39.6418 36.0868 39.4821C35.7025 39.3225 35.3739 39.0517 35.1426 38.7042C34.9112 38.3567 34.7874 37.9479 34.787 37.5296C34.7867 36.9685 35.0078 36.4303 35.4018 36.0332C35.7959 35.6361 36.3305 35.4127 36.8882 35.412ZM36.8882 33.2302C36.0421 33.23 35.215 33.4822 34.5115 33.9549C33.8079 34.4276 33.2595 35.0997 32.9357 35.886C32.6118 36.6723 32.527 37.5376 32.692 38.3724C32.857 39.2073 33.2644 39.9741 33.8626 40.576C34.4608 41.1778 35.2231 41.5877 36.0528 41.7537C36.8826 41.9197 37.7427 41.8343 38.5243 41.5085C39.3059 41.1827 39.9739 40.6309 40.4438 39.9231C40.9136 39.2153 41.1643 38.3832 41.1641 37.532C41.1641 36.3911 40.7136 35.2969 39.9117 34.4902C39.1098 33.6835 38.0222 33.2302 36.8882 33.2302Z" fill="#56A47A"/>
<path d="M60.0785 53.0907L49.2038 44.6968L43.2207 50.5441L52.4099 60.8119C52.454 60.8999 52.5183 60.9762 52.5973 61.0344C52.6764 61.0926 52.7681 61.1312 52.8648 61.1469C52.9615 61.1626 53.0606 61.1551 53.1539 61.1249C53.2471 61.0947 53.332 61.0427 53.4014 60.9731L60.2436 54.0883C60.313 54.0183 60.3649 53.9327 60.3949 53.8385C60.4248 53.7444 60.432 53.6444 60.4159 53.5468C60.3998 53.4493 60.3608 53.357 60.3021 53.2777C60.2434 53.1984 60.1668 53.1343 60.0785 53.0907ZM53.0496 57.7247L46.7291 50.6628L49.3978 48.0556L56.9026 53.8471L53.0496 57.7247Z" fill="#56A47A"/>
</svg>
