<svg width="82" height="83" viewBox="0 0 82 83" fill="none" xmlns="http://www.w3.org/2000/svg">
<path opacity="0.2" d="M54 0.550659H28C12.536 0.550659 0 13.0867 0 28.5507V54.5507C0 70.0146 12.536 82.5507 28 82.5507H54C69.464 82.5507 82 70.0146 82 54.5507V28.5507C82 13.0867 69.464 0.550659 54 0.550659Z" fill="#D7F9D3"/>
<path d="M41.1381 34.2125C42.3874 34.2125 43.6087 34.5774 44.6475 35.2611C45.6863 35.9447 46.4959 36.9164 46.974 38.0533C47.4521 39.1902 47.5772 40.4411 47.3335 41.648C47.0898 42.8549 46.4882 43.9635 45.6047 44.8336C44.7213 45.7037 43.5958 46.2963 42.3704 46.5364C41.1451 46.7764 39.875 46.6532 38.7207 46.1823C37.5665 45.7114 36.5799 44.914 35.8858 43.8908C35.1917 42.8677 34.8212 41.6648 34.8212 40.4342C34.8229 38.7846 35.4889 37.203 36.6732 36.0366C37.8575 34.8701 39.4632 34.2141 41.1381 34.2125ZM41.1381 32.0378C39.4518 32.0369 37.8032 32.5285 36.4006 33.4505C34.9981 34.3726 33.9047 35.6836 33.2587 37.2177C32.6127 38.7519 32.4432 40.4403 32.7716 42.0693C33.1 43.6984 33.9115 45.1949 35.1035 46.3697C36.2955 47.5444 37.8145 48.3446 39.4683 48.6689C41.122 48.9933 42.8363 48.8273 44.3943 48.1919C45.9523 47.5566 47.284 46.4804 48.2209 45.0995C49.1578 43.7186 49.6579 42.0951 49.6579 40.4342C49.6563 38.2092 48.7581 36.0759 47.1607 34.5027C45.5632 32.9295 43.3971 32.0451 41.1381 32.0439V32.0378Z" fill="#56A47A"/>
<path d="M51.7115 52.3452V56.5765C51.7117 56.6317 51.6998 56.6862 51.6768 56.7365C51.6538 56.7868 51.6202 56.8317 51.5781 56.8681C48.6059 59.4397 44.7751 60.8413 40.8191 60.8046C36.8631 60.7679 33.0598 59.2955 30.1372 56.6693C30.0979 56.6323 30.0667 56.5878 30.0457 56.5385C30.0246 56.4891 30.0141 56.4361 30.0148 56.3825V52.7307C30.0148 52.6285 30.0561 52.5304 30.1295 52.4581C30.2029 52.3858 30.3025 52.3452 30.4063 52.3452H51.7176M53.9194 50.1765H28.1922C28.0884 50.1765 27.9888 50.2171 27.9154 50.2894C27.842 50.3617 27.8008 50.4598 27.8008 50.5621V57.309C27.8008 57.4108 27.8412 57.5085 27.9133 57.5813C29.5966 59.2733 31.6023 60.6214 33.8155 61.5485C36.0288 62.4756 38.406 62.9634 40.811 62.984C43.2159 63.0046 45.6014 62.5576 47.8306 61.6685C50.0599 60.7795 52.0891 59.4659 53.802 57.803C53.8402 57.7672 53.8707 57.7243 53.8917 57.6767C53.9127 57.6291 53.9238 57.5778 53.9243 57.5259V50.1765H53.9194Z" fill="#56A47A"/>
<path d="M41.6642 20.1439H40.2391C40.0229 20.1439 39.8477 20.3165 39.8477 20.5295V27.6391C39.8477 27.852 40.0229 28.0246 40.2391 28.0246H41.6642C41.8804 28.0246 42.0556 27.852 42.0556 27.6391V20.5295C42.0556 20.3165 41.8804 20.1439 41.6642 20.1439Z" fill="#56A47A"/>
<path d="M53.0531 23.9031L47.9057 28.973C47.7528 29.1235 47.7528 29.3677 47.9057 29.5182L48.9134 30.5107C49.0662 30.6613 49.3141 30.6613 49.467 30.5107L54.6143 25.4409C54.7672 25.2903 54.7672 25.0462 54.6143 24.8956L53.6067 23.9031C53.4538 23.7526 53.2059 23.7526 53.0531 23.9031Z" fill="#56A47A"/>
<path d="M28.3396 23.8734L27.332 24.8659C27.1791 25.0165 27.1791 25.2606 27.332 25.4112L32.5105 30.5117C32.6634 30.6623 32.9112 30.6623 33.0641 30.5117L34.0717 29.5192C34.2246 29.3686 34.2246 29.1245 34.0718 28.974L28.8932 23.8734C28.7404 23.7229 28.4925 23.7229 28.3396 23.8734Z" fill="#56A47A"/>
</svg>
