<svg width="82" height="83" viewBox="0 0 82 83" fill="none" xmlns="http://www.w3.org/2000/svg">
<path opacity="0.2" d="M54 0.550659H28C12.536 0.550659 0 13.0867 0 28.5507V54.5507C0 70.0146 12.536 82.5507 28 82.5507H54C69.464 82.5507 82 70.0146 82 54.5507V28.5507C82 13.0867 69.464 0.550659 54 0.550659Z" fill="#D7F9D3"/>
<path d="M40.9333 37.8083C41.654 37.8083 42.3586 38.0315 42.9578 38.4497C43.5571 38.8679 44.0241 39.4623 44.2999 40.1577C44.5757 40.8531 44.6479 41.6183 44.5073 42.3565C44.3667 43.0947 44.0196 43.7729 43.51 44.3051C43.0004 44.8373 42.3511 45.1998 41.6442 45.3466C40.9374 45.4935 40.2047 45.4181 39.5389 45.1301C38.873 44.842 38.3039 44.3542 37.9035 43.7284C37.5031 43.1025 37.2894 42.3667 37.2894 41.614C37.2904 40.605 37.6746 39.6377 38.3578 38.9242C39.0409 38.2107 39.9672 37.8094 40.9333 37.8083ZM40.9333 35.424C39.7596 35.424 38.6122 35.7876 37.6363 36.4688C36.6604 37.15 35.8999 38.1181 35.451 39.2508C35.0022 40.3835 34.885 41.6298 35.1145 42.832C35.3439 44.0342 35.9097 45.1384 36.7401 46.0047C37.5705 46.8711 38.6283 47.4607 39.7797 47.6991C40.9311 47.9374 42.1243 47.8138 43.2083 47.3438C44.2924 46.8737 45.2186 46.0785 45.8698 45.0585C46.521 44.0386 46.8679 42.8399 46.8667 41.614C46.8667 39.9706 46.2415 38.3944 45.1288 37.2323C44.0161 36.0702 42.5069 35.4174 40.9333 35.4174V35.424Z" fill="#56A47A"/>
<path d="M40.5781 18.8185L35.4858 28.0123C35.4294 28.1143 35.3998 28.2298 35.3999 28.3474C35.4 28.4651 35.4298 28.5806 35.4863 28.6824C35.5428 28.7842 35.624 28.8688 35.7218 28.9276C35.8196 28.9864 35.9305 29.0173 36.0434 29.0173H37.1916C37.3047 29.0173 37.4158 28.9863 37.5137 28.9273C37.6116 28.8683 37.6929 28.7835 37.7493 28.6815L40.5781 23.5788C40.6346 23.477 40.7159 23.3926 40.8136 23.3339C40.9114 23.2752 41.0223 23.2442 41.1351 23.2442C41.248 23.2442 41.3589 23.2752 41.4566 23.3339C41.5544 23.3926 41.6356 23.477 41.6922 23.5788L44.5184 28.6709C44.5745 28.7731 44.6555 28.858 44.7532 28.917C44.8509 28.976 44.9619 29.007 45.0748 29.0068H46.2243C46.3371 29.0065 46.4479 28.9754 46.5455 28.9165C46.6431 28.8577 46.7241 28.7731 46.7805 28.6713C46.8369 28.5695 46.8665 28.4541 46.8666 28.3366C46.8666 28.2191 46.837 28.1036 46.7807 28.0018L41.6922 18.8185C41.6356 18.7168 41.5544 18.6323 41.4566 18.5736C41.3589 18.5149 41.248 18.484 41.1351 18.484C41.0223 18.484 40.9114 18.5149 40.8136 18.5736C40.7159 18.6323 40.6346 18.7168 40.5781 18.8185Z" fill="#56A47A"/>
<path d="M46.2271 54.2173H45.0774C44.9633 54.217 44.8512 54.2484 44.7527 54.3084C44.6542 54.3684 44.5729 54.4547 44.5172 54.5584L41.6905 59.6559C41.634 59.7576 41.5527 59.842 41.4549 59.9008C41.3572 59.9595 41.2463 59.9904 41.1334 59.9904C41.0205 59.9904 40.9097 59.9595 40.8119 59.9008C40.7141 59.842 40.6329 59.7576 40.5763 59.6559L37.7471 54.5584C37.6907 54.4564 37.6094 54.3716 37.5115 54.3126C37.4136 54.2536 37.3025 54.2226 37.1894 54.2226H36.0435C35.9306 54.2226 35.8197 54.2535 35.7219 54.3123C35.6241 54.3711 35.5428 54.4557 35.4863 54.5575C35.4298 54.6593 35.4 54.7748 35.3999 54.8925C35.3998 55.0101 35.4294 55.1256 35.4858 55.2276L40.5788 64.4161C40.6354 64.5178 40.7166 64.6023 40.8144 64.661C40.9122 64.7197 41.0231 64.7506 41.1359 64.7506C41.2488 64.7506 41.3597 64.7197 41.4575 64.661C41.5553 64.6023 41.6365 64.5178 41.693 64.4161L46.7836 55.217C46.8386 55.1153 46.8672 55.0004 46.8666 54.8837C46.8659 54.767 46.836 54.6525 46.7798 54.5515C46.7235 54.4505 46.643 54.3665 46.546 54.3079C46.4491 54.2493 46.3392 54.2181 46.2271 54.2173Z" fill="#56A47A"/>
<path d="M63.0779 40.5679L54.234 35.2405C54.136 35.1816 54.0249 35.1506 53.9118 35.1506C53.7987 35.1507 53.6876 35.1817 53.5896 35.2407C53.4916 35.2996 53.4102 35.3844 53.3535 35.4865C53.2968 35.5887 53.2668 35.7045 53.2666 35.8226V37.0251C53.2666 37.1431 53.2963 37.259 53.3529 37.3612C53.4094 37.4633 53.4907 37.5482 53.5886 37.6072L58.5019 40.5679C58.5998 40.627 58.6812 40.712 58.7377 40.8143C58.7942 40.9166 58.8239 41.0326 58.8239 41.1506C58.8239 41.2687 58.7942 41.3847 58.7377 41.487C58.6812 41.5893 58.5998 41.6742 58.5019 41.7334L53.5886 44.6928C53.4907 44.7521 53.4094 44.8372 53.3529 44.9396C53.2964 45.0419 53.2666 45.158 53.2666 45.2762V46.4774C53.2666 46.5955 53.2964 46.7116 53.353 46.8139C53.4096 46.9162 53.491 47.0012 53.589 47.0603C53.687 47.1194 53.7982 47.1505 53.9115 47.1506C54.0247 47.1507 54.1359 47.1198 54.234 47.0608L63.0779 41.7334C63.1758 41.6742 63.2571 41.5893 63.3137 41.487C63.3702 41.3847 63.3999 41.2687 63.3999 41.1506C63.3999 41.0326 63.3702 40.9166 63.3137 40.8143C63.2571 40.712 63.1758 40.627 63.0779 40.5679Z" fill="#56A47A"/>
<path d="M28.8667 46.4774V45.2762C28.8667 45.158 28.837 45.0419 28.7804 44.9396C28.7239 44.8372 28.6426 44.7521 28.5447 44.6928L23.6314 41.7334C23.5335 41.6742 23.4522 41.5893 23.3957 41.487C23.3391 41.3847 23.3094 41.2687 23.3094 41.1506C23.3094 41.0326 23.3391 40.9166 23.3957 40.8143C23.4522 40.712 23.5335 40.627 23.6314 40.5679L28.5447 37.6072C28.6426 37.5482 28.7239 37.4633 28.7805 37.3612C28.837 37.259 28.8667 37.1431 28.8667 37.0251V35.8226C28.8665 35.7045 28.8365 35.5887 28.7798 35.4865C28.7232 35.3844 28.6417 35.2996 28.5438 35.2407C28.4458 35.1817 28.3347 35.1507 28.2216 35.1506C28.1084 35.1506 27.9973 35.1816 27.8993 35.2405L19.0554 40.5679C18.9575 40.627 18.8762 40.712 18.8197 40.8143C18.7632 40.9166 18.7334 41.0326 18.7334 41.1506C18.7334 41.2687 18.7632 41.3847 18.8197 41.487C18.8762 41.5893 18.9575 41.6742 19.0554 41.7334L27.8993 47.0608C27.9974 47.1198 28.1087 47.1507 28.2219 47.1506C28.3351 47.1505 28.4463 47.1194 28.5443 47.0603C28.6423 47.0012 28.7237 46.9162 28.7803 46.8139C28.8369 46.7116 28.8667 46.5955 28.8667 46.4774Z" fill="#56A47A"/>
<path d="M41.6944 51.4174H40.7061C40.3531 51.4174 40.0669 51.7159 40.0669 52.0842V59.9505C40.0669 60.3188 40.3531 60.6174 40.7061 60.6174H41.6944C42.0474 60.6174 42.3336 60.3188 42.3336 59.9505V52.0842C42.3336 51.7159 42.0474 51.4174 41.6944 51.4174Z" fill="#56A47A"/>
<path d="M41.6944 21.8174H40.7061C40.3531 21.8174 40.0669 22.1203 40.0669 22.4939V30.4742C40.0669 30.8478 40.3531 31.1507 40.7061 31.1507H41.6944C42.0474 31.1507 42.3336 30.8478 42.3336 30.4742V22.4939C42.3336 22.1203 42.0474 21.8174 41.6944 21.8174Z" fill="#56A47A"/>
<path d="M31.5334 40.2173H22.6001V42.6173H31.5334V40.2173Z" fill="#56A47A"/>
<path d="M59.4191 40.2173H51.7808C51.4232 40.2173 51.1333 40.5203 51.1333 40.8941V41.9405C51.1333 42.3143 51.4232 42.6173 51.7808 42.6173H59.4191C59.7767 42.6173 60.0666 42.3143 60.0666 41.9405V40.8941C60.0666 40.5203 59.7767 40.2173 59.4191 40.2173Z" fill="#56A47A"/>
</svg>
