<svg width="257" height="166" viewBox="0 0 257 166" fill="none" xmlns="http://www.w3.org/2000/svg">
<path d="M9.77742 0.0949565H247.091C252.439 0.0949565 256.774 4.42994 256.774 9.77742V156.089C256.774 161.437 252.439 165.772 247.091 165.772H9.77741C4.42993 165.772 0.0949565 161.437 0.0949565 156.089V9.77743C0.0949565 4.42995 4.42994 0.0949565 9.77742 0.0949565Z" fill="white" stroke="black" stroke-width="0.189913"/>
<path d="M0.26416 156.606V3.94482C0.26416 1.76177 1.99844 0 4.14744 0H16.1366V165.338H8.82245C4.10974 165.338 0.26416 161.431 0.26416 156.606Z" fill="#014722"/>
<path d="M7.19581 11.9008C7.19581 10.8885 7.75817 10.5136 8.24555 10.5136C8.88289 10.5136 9.29528 11.076 9.29528 11.8633C9.29528 12.8006 8.77042 13.213 8.24555 13.213C7.53323 13.2505 7.19581 12.5381 7.19581 11.9008ZM8.50798 9.35144C7.75817 9.35144 7.34578 9.68885 7.12083 9.9138C7.08334 9.72635 6.97087 9.46391 6.446 9.46391H5.32129V10.6261H5.77117C5.84616 10.6261 5.88365 10.6636 5.88365 10.7386V16.0997H7.23331V14.0752C7.23331 14.0378 7.23331 13.9628 7.23331 13.9253C7.42076 14.1127 7.83315 14.3752 8.47049 14.3752C9.78266 14.3752 10.6824 13.3254 10.6824 11.8633C10.6824 10.3637 9.78266 9.35144 8.50798 9.35144Z" fill="white"/>
<path d="M8.02054 33.908C10.0911 33.908 11.7696 32.2295 11.7696 30.159C11.7696 28.0884 10.0911 26.4099 8.02054 26.4099C5.94999 26.4099 4.27148 28.0884 4.27148 30.159C4.27148 32.2295 5.94999 33.908 8.02054 33.908Z" fill="white"/>
<path d="M8.02054 50.5911C10.0911 50.5911 11.7696 48.9126 11.7696 46.8421C11.7696 44.7715 10.0911 43.093 8.02054 43.093C5.94999 43.093 4.27148 44.7715 4.27148 46.8421C4.27148 48.9126 5.94999 50.5911 8.02054 50.5911Z" fill="white"/>
<path d="M8.02054 67.2366C10.0911 67.2366 11.7696 65.5581 11.7696 63.4876C11.7696 61.417 10.0911 59.7385 8.02054 59.7385C5.94999 59.7385 4.27148 61.417 4.27148 63.4876C4.27148 65.5581 5.94999 67.2366 8.02054 67.2366Z" fill="white"/>
<path d="M8.02054 83.9202C10.0911 83.9202 11.7696 82.2417 11.7696 80.1712C11.7696 78.1006 10.0911 76.4221 8.02054 76.4221C5.94999 76.4221 4.27148 78.1006 4.27148 80.1712C4.27148 82.2417 5.94999 83.9202 8.02054 83.9202Z" fill="white"/>
<path d="M8.02054 107.389C10.0911 107.389 11.7696 105.711 11.7696 103.64C11.7696 101.57 10.0911 99.8911 8.02054 99.8911C5.94999 99.8911 4.27148 101.57 4.27148 103.64C4.27148 105.711 5.94999 107.389 8.02054 107.389Z" fill="white"/>
<path d="M8.02054 124.372C10.0911 124.372 11.7696 122.694 11.7696 120.623C11.7696 118.553 10.0911 116.874 8.02054 116.874C5.94999 116.874 4.27148 118.553 4.27148 120.623C4.27148 122.694 5.94999 124.372 8.02054 124.372Z" fill="white"/>
<path d="M8.02054 141.393C10.0911 141.393 11.7696 139.715 11.7696 137.644C11.7696 135.574 10.0911 133.895 8.02054 133.895C5.94999 133.895 4.27148 135.574 4.27148 137.644C4.27148 139.715 5.94999 141.393 8.02054 141.393Z" fill="white"/>
<path d="M8.02054 158.377C10.0911 158.377 11.7696 156.698 11.7696 154.627C11.7696 152.557 10.0911 150.878 8.02054 150.878C5.94999 150.878 4.27148 152.557 4.27148 154.627C4.27148 156.698 5.94999 158.377 8.02054 158.377Z" fill="white"/>
<path d="M2.92236 93.4805H13.0823" stroke="white" stroke-width="0.379826" stroke-miterlimit="10"/>
<path d="M110.049 165.074H21.1636V39.0919C21.1636 35.0437 24.4695 31.7451 28.5269 31.7451H102.611C106.668 31.7451 109.974 35.0437 109.974 39.0919V165.074H110.049Z" fill="#EDEEF0"/>
<path d="M201.315 165.074H112.694V39.0919C112.694 35.0437 115.991 31.7451 120.038 31.7451H193.933C197.98 31.7451 201.277 35.0437 201.277 39.0919V165.074H201.315Z" fill="#EDEEF0"/>
<path d="M256.67 31.6831V157.407C256.67 161.605 252.422 165.016 247.194 165.016H204.997V39.0301C204.997 34.9443 209.104 31.6831 214.146 31.6831H256.67Z" fill="#EDEEF0"/>
<path d="M191.106 101.319H125.813C123.11 101.319 120.895 99.1113 120.895 96.4167V44.584C120.895 41.8894 123.11 39.6814 125.813 39.6814H191.106C193.809 39.6814 196.024 41.8894 196.024 44.584V96.4167C195.987 99.1113 193.809 101.319 191.106 101.319Z" fill="white"/>
<path d="M98.8852 101.319H31.2687C29.2026 101.319 27.5122 99.6386 27.5122 97.5845V79.658C27.5122 77.604 29.2026 75.9233 31.2687 75.9233H98.8852C100.951 75.9233 102.642 77.604 102.642 79.658V97.5845C102.642 99.6386 100.951 101.319 98.8852 101.319Z" fill="white"/>
<path d="M98.8852 137.297H31.2687C29.2026 137.297 27.5122 135.599 27.5122 133.523V115.41C27.5122 113.335 29.2026 111.636 31.2687 111.636H98.8852C100.951 111.636 102.642 113.335 102.642 115.41V133.523C102.642 135.599 100.951 137.297 98.8852 137.297Z" fill="white"/>
<path d="M98.8852 65.0773H31.2687C29.2026 65.0773 27.5122 63.3967 27.5122 61.3426V43.4161C27.5122 41.362 29.2026 39.6814 31.2687 39.6814H98.8852C100.951 39.6814 102.642 41.362 102.642 43.4161V61.3426C102.642 63.3967 100.951 65.0773 98.8852 65.0773Z" fill="white"/>
<g clip-path="url(#clip0_97_6873)">
<path d="M136.335 95.1718C136.448 95.697 136.56 96.2222 136.711 96.7474L131.978 96.7849L127.658 96.8224L127.508 76.9023L131.039 76.8648L136.748 76.8273H137.274L140.279 76.7898C138.363 79.4908 137.011 82.6045 136.335 85.9808C136.335 86.0933 136.297 86.2059 136.26 86.3184C135.734 89.2821 135.771 92.2457 136.335 95.1718Z" fill="#B7B6B6"/>
<path d="M143.923 96.672L139.866 96.7095H137.838H136.748C136.598 96.1843 136.485 95.6591 136.373 95.1339C135.809 92.2078 135.809 89.2441 136.335 86.2805C136.373 86.168 136.373 86.0554 136.41 85.9429C137.086 82.5666 138.401 79.4529 140.354 76.7519L143.81 76.7144V77.202V78.2524L143.923 96.672Z" fill="#CFD0F9"/>
<path d="M166.422 67.486C165.821 67.3359 165.22 67.1859 164.582 67.0358C159.661 66.0605 154.665 66.6232 150.195 68.6489L150.158 62.9843L166.385 62.8342L166.422 67.486Z" fill="#B7B6B6"/>
<path d="M166.648 96.4845L159.473 96.5596L150.421 96.6346L150.233 73.0381V72.0252L150.195 68.6864C154.703 66.6982 159.661 66.0979 164.582 67.0733C165.183 67.1859 165.821 67.3359 166.422 67.5235L166.46 70.7122V71.7251L166.648 96.4845Z" fill="#3DBC62"/>
<path d="M183.55 95.284C184.151 92.2078 184.151 89.1316 183.588 86.093C182.311 79.4904 178.404 73.9008 172.995 70.412L172.845 50.9045L189.035 50.792L189.41 96.3344L183.288 96.3719C183.4 95.9967 183.475 95.6591 183.55 95.284Z" fill="#B7B6B6"/>
<path d="M183.551 95.2841C183.476 95.6592 183.401 95.9969 183.288 96.372L180.133 96.4095L173.146 96.4846L172.996 75.1764V74.1635L172.958 70.4121C178.405 73.9009 182.274 79.4906 183.551 86.0931C184.152 89.1317 184.152 92.2079 183.551 95.2841Z" fill="#9FCF74"/>
</g>
<path opacity="0.68" d="M164.261 67.6477C173.037 69.3637 179.785 76.1497 181.463 84.9247C182.009 87.6937 181.97 90.5017 181.424 93.2707C179.083 105.088 167.615 112.771 155.796 110.47C147.02 108.754 140.272 101.968 138.595 93.1927C138.049 90.4237 138.088 87.6157 138.634 84.8467C139.765 79.1137 143.041 74.1997 147.878 70.9627C152.715 67.6867 158.527 66.5167 164.261 67.6477Z" fill="white" fill-opacity="0.3"/>
<path opacity="0.68" d="M164.188 65.7591C160.981 65.1331 157.695 65.2114 154.605 65.9939L162.233 108.991C171.542 108.013 179.521 101.088 181.437 91.4635C181.985 88.6857 181.985 85.8688 181.477 83.091C179.756 74.2881 172.989 67.4806 164.188 65.7591Z" fill="white" fill-opacity="0.3"/>
<path opacity="0.68" d="M163.377 67.0573C157.866 65.9701 152.28 67.0948 147.631 70.2065C142.982 73.3182 139.833 78.0795 138.746 83.5531C138.408 85.3152 138.296 87.0397 138.371 88.8018C138.371 87.3771 138.483 85.99 138.783 84.5653C139.87 79.0542 143.02 74.3304 147.668 71.2187C152.317 68.107 157.903 66.9823 163.414 68.0695C171.85 69.7191 178.336 76.2425 179.948 84.6778C180.135 85.6151 180.248 86.5149 180.285 87.4521C180.285 86.1774 180.173 84.9028 179.91 83.6656C178.298 75.2302 171.812 68.7069 163.377 67.0573Z" fill="#ADDBD5"/>
<path d="M184.555 84.358C183.228 77.4913 179.171 71.678 173.552 68.0496C171.485 66.723 169.183 65.7087 166.764 65.0064C166.14 64.8503 165.515 64.6943 164.852 64.5382C159.741 63.5238 154.552 64.109 149.909 66.2159C148.622 66.8011 147.334 67.5034 146.125 68.3227C143.55 70.0394 141.326 72.2242 139.609 74.6822C137.62 77.4913 136.215 80.7295 135.513 84.2409C135.513 84.3579 135.474 84.475 135.435 84.592C134.888 87.6742 134.888 90.7564 135.474 93.7996C135.591 94.3458 135.708 94.8921 135.864 95.4383C135.903 95.5553 135.942 95.7114 135.981 95.8284C138.517 104.88 145.852 111.747 155.215 113.58C163.331 115.18 171.329 112.605 177.025 107.377C177.883 106.597 178.663 105.738 179.405 104.841C181.707 102.032 183.384 98.7156 184.321 95.0481C184.399 94.658 184.516 94.3068 184.594 93.9167C185.179 90.7174 185.179 87.5182 184.555 84.358ZM181.004 95.0871C181.004 95.1262 180.965 95.1652 180.965 95.2042C180.965 95.2042 180.965 95.2042 180.965 95.2432C180.965 95.2432 180.965 95.2432 180.965 95.2822C180.965 95.3603 180.926 95.3993 180.926 95.4773C180.926 95.4773 180.926 95.5163 180.887 95.5163C180.887 95.5553 180.887 95.5553 180.887 95.5553C180.887 95.5943 180.848 95.6334 180.848 95.6724C180.848 95.7114 180.809 95.7504 180.809 95.7894C180.809 95.8284 180.809 95.8675 180.77 95.9065C180.77 95.9065 180.77 95.9065 180.77 95.9455V95.9845V96.0235C180.77 96.0625 180.731 96.1406 180.731 96.1796C180.731 96.2186 180.731 96.2186 180.692 96.2576C180.692 96.2966 180.692 96.2966 180.653 96.3356V96.3746C180.614 96.4527 180.575 96.5307 180.575 96.6087C180.575 96.6478 180.536 96.6478 180.536 96.6868V96.7258C180.536 96.7648 180.497 96.8038 180.497 96.8428C180.497 96.8818 180.497 96.8819 180.458 96.8819C180.458 96.9209 180.419 96.9599 180.419 96.9989C180.419 97.0379 180.38 97.1159 180.38 97.1549C180.38 97.194 180.341 97.194 180.341 97.233C180.302 97.311 180.263 97.389 180.263 97.4671C180.263 97.5061 180.224 97.5061 180.224 97.5451C180.224 97.5841 180.185 97.6231 180.185 97.6622C180.146 97.7402 180.107 97.8182 180.107 97.8572C180.107 97.8962 180.107 97.8962 180.068 97.8962C180.029 98.0133 179.951 98.1303 179.873 98.2864C179.795 98.4034 179.756 98.5595 179.678 98.6765C179.639 98.7546 179.6 98.8326 179.561 98.9106C179.522 98.9887 179.483 99.0277 179.444 99.1057C179.444 99.1447 179.405 99.1447 179.405 99.1838C179.366 99.2228 179.366 99.2618 179.327 99.3008C179.327 99.3008 179.327 99.3008 179.327 99.3398C179.288 99.4178 179.249 99.4569 179.21 99.5349C179.171 99.6129 179.132 99.6909 179.093 99.73C179.015 99.886 178.898 100.042 178.82 100.237C178.82 100.237 178.82 100.276 178.781 100.276C178.781 100.315 178.742 100.315 178.742 100.354C178.702 100.393 178.702 100.432 178.663 100.471C178.585 100.588 178.546 100.705 178.468 100.783C178.468 100.783 178.468 100.822 178.429 100.822C178.351 100.939 178.312 101.017 178.234 101.135C178.195 101.213 178.156 101.252 178.117 101.291C178.078 101.33 178.039 101.408 178 101.447C178 101.486 177.961 101.486 177.922 101.525C177.922 101.525 177.922 101.564 177.883 101.564C177.805 101.642 177.766 101.72 177.688 101.837L177.649 101.876C177.61 101.954 177.532 102.032 177.493 102.071C177.454 102.11 177.415 102.149 177.415 102.188C177.415 102.227 177.376 102.227 177.376 102.266C177.376 102.305 177.337 102.305 177.337 102.344C177.337 102.344 177.298 102.383 177.298 102.422C177.259 102.5 177.181 102.539 177.142 102.617C177.103 102.695 177.025 102.734 176.986 102.812C176.947 102.89 176.869 102.929 176.83 103.007C176.791 103.085 176.713 103.124 176.674 103.163C176.635 103.202 176.635 103.202 176.635 103.241C176.635 103.241 176.635 103.28 176.596 103.28C176.596 103.319 176.557 103.319 176.518 103.358C176.479 103.397 176.44 103.475 176.401 103.514C176.401 103.514 176.401 103.553 176.362 103.553C176.323 103.592 176.284 103.631 176.245 103.671C176.206 103.749 176.127 103.788 176.088 103.866C176.049 103.905 176.01 103.944 175.971 103.983C175.815 104.139 175.659 104.295 175.503 104.451C175.425 104.529 175.386 104.568 175.308 104.646C175.269 104.685 175.269 104.685 175.23 104.724L175.191 104.763C175.191 104.763 175.191 104.763 175.152 104.802L175.113 104.841L175.074 104.88C175.035 104.919 174.957 104.997 174.918 105.036C174.84 105.114 174.762 105.153 174.723 105.231C174.723 105.231 174.684 105.231 174.684 105.27C174.684 105.27 174.645 105.27 174.645 105.309C174.567 105.387 174.489 105.465 174.411 105.543C174.333 105.621 174.255 105.699 174.138 105.777L174.099 105.816C174.099 105.816 174.099 105.816 174.06 105.855L174.021 105.894C173.982 105.933 173.943 105.972 173.904 106.011C173.904 106.011 173.904 106.011 173.865 106.011L173.826 106.05L173.787 106.089C173.748 106.128 173.709 106.128 173.67 106.167C173.592 106.246 173.474 106.324 173.396 106.402C173.357 106.441 173.318 106.48 173.279 106.48C173.279 106.48 173.24 106.48 173.24 106.519C173.201 106.558 173.201 106.558 173.162 106.558C173.123 106.558 173.084 106.597 173.084 106.636C172.967 106.714 172.85 106.792 172.772 106.87C172.733 106.909 172.655 106.948 172.616 106.987C172.577 107.026 172.499 107.065 172.421 107.104C172.421 107.104 172.382 107.104 172.382 107.143C172.265 107.221 172.148 107.299 172.031 107.377C171.914 107.455 171.797 107.533 171.641 107.611C171.563 107.65 171.524 107.689 171.446 107.728C171.368 107.767 171.329 107.806 171.251 107.845C171.173 107.884 171.095 107.962 171.017 108.001C170.977 108.001 170.938 108.04 170.899 108.079C170.821 108.118 170.782 108.157 170.704 108.196C170.626 108.235 170.587 108.274 170.548 108.274C170.47 108.313 170.431 108.352 170.353 108.391C170.275 108.43 170.236 108.469 170.158 108.469C170.041 108.547 169.924 108.586 169.768 108.664C169.651 108.703 169.534 108.781 169.417 108.821C169.378 108.821 169.339 108.86 169.339 108.86C169.222 108.899 169.105 108.977 168.988 109.016C168.715 109.133 168.481 109.25 168.207 109.367C168.168 109.367 168.168 109.406 168.129 109.406C168.051 109.445 167.973 109.484 167.895 109.484C167.856 109.484 167.817 109.523 167.817 109.523H167.778C167.7 109.562 167.661 109.562 167.583 109.601C167.544 109.64 167.466 109.64 167.427 109.64C167.349 109.679 167.271 109.679 167.193 109.718C167.115 109.757 167.076 109.757 166.998 109.796H166.959H166.92C166.803 109.835 166.686 109.874 166.608 109.913H166.569C166.569 109.913 166.569 109.913 166.53 109.913C166.53 109.913 166.491 109.913 166.491 109.952C166.452 109.952 166.413 109.991 166.374 109.991C166.335 109.991 166.296 110.03 166.218 110.03C166.218 110.03 166.218 110.03 166.179 110.03H166.14C166.101 110.03 166.101 110.03 166.062 110.069C166.023 110.069 165.945 110.108 165.906 110.108C165.867 110.108 165.788 110.147 165.749 110.147C165.71 110.147 165.632 110.186 165.593 110.186C165.593 110.186 165.554 110.186 165.515 110.186H165.476C165.437 110.186 165.398 110.225 165.32 110.225C165.281 110.225 165.242 110.225 165.203 110.264C165.125 110.303 165.086 110.303 165.008 110.303C164.969 110.303 164.93 110.342 164.852 110.342C164.813 110.342 164.774 110.342 164.735 110.381C164.696 110.381 164.696 110.381 164.657 110.381H164.618C164.579 110.381 164.54 110.42 164.501 110.42C164.462 110.42 164.423 110.42 164.384 110.459C164.345 110.459 164.345 110.459 164.306 110.459C164.228 110.459 164.15 110.498 164.072 110.498C163.916 110.537 163.799 110.537 163.643 110.576H163.604C163.565 110.576 163.487 110.576 163.448 110.615C163.409 110.615 163.409 110.615 163.37 110.615C163.331 110.615 163.331 110.615 163.292 110.615C163.252 110.615 163.213 110.615 163.174 110.615C163.018 110.615 162.901 110.654 162.745 110.693C162.706 110.693 162.667 110.693 162.628 110.693C162.511 110.693 162.433 110.732 162.316 110.732C162.121 110.732 161.926 110.771 161.77 110.771C161.575 110.771 161.38 110.81 161.185 110.81C161.107 110.81 161.029 110.81 160.99 110.81C160.951 110.81 160.912 110.81 160.873 110.81C160.795 110.81 160.717 110.81 160.677 110.81H160.56C160.482 110.81 160.404 110.81 160.326 110.81C160.248 110.81 160.17 110.81 160.092 110.81C159.741 110.81 159.39 110.81 159.039 110.771C158.883 110.771 158.688 110.771 158.532 110.732C158.415 110.732 158.259 110.693 158.142 110.693C158.142 110.693 158.142 110.693 158.102 110.693C157.985 110.693 157.907 110.693 157.79 110.654C157.556 110.654 157.283 110.615 157.049 110.576C156.971 110.576 156.893 110.537 156.854 110.537C156.698 110.498 156.581 110.498 156.425 110.459C156.386 110.459 156.347 110.459 156.347 110.459C156.308 110.459 156.269 110.459 156.191 110.42C156.074 110.42 155.957 110.381 155.84 110.342C155.645 110.303 155.488 110.264 155.293 110.225C155.215 110.225 155.098 110.186 155.02 110.147C154.864 110.108 154.708 110.069 154.552 110.03C154.435 109.991 154.318 109.952 154.201 109.952C153.928 109.874 153.694 109.796 153.421 109.718C153.148 109.64 152.835 109.523 152.562 109.406C152.367 109.328 152.133 109.25 151.938 109.172C151.665 109.055 151.392 108.938 151.158 108.821C151.041 108.781 150.924 108.703 150.768 108.664C150.651 108.625 150.534 108.547 150.417 108.508C150.182 108.391 149.948 108.274 149.714 108.157C149.675 108.118 149.597 108.079 149.558 108.079C149.519 108.04 149.441 108.001 149.363 107.962C149.285 107.923 149.207 107.884 149.129 107.806C149.051 107.767 149.012 107.728 148.934 107.689C148.739 107.572 148.544 107.455 148.349 107.299C148.115 107.143 147.92 107.026 147.685 106.87C147.451 106.714 147.256 106.558 147.022 106.402C146.827 106.285 146.671 106.128 146.476 105.972C146.437 105.933 146.359 105.894 146.32 105.855C146.242 105.777 146.164 105.738 146.086 105.66C146.047 105.621 146.008 105.582 145.969 105.543C145.93 105.504 145.891 105.465 145.813 105.426C145.774 105.387 145.735 105.348 145.696 105.348L145.657 105.309C145.54 105.192 145.423 105.075 145.267 104.958C145.188 104.88 145.11 104.802 145.032 104.763C144.993 104.724 144.915 104.646 144.876 104.607C144.798 104.529 144.72 104.451 144.642 104.373C144.603 104.334 144.525 104.256 144.486 104.217C144.408 104.139 144.33 104.061 144.252 103.944C144.135 103.827 144.057 103.749 143.94 103.631C143.784 103.475 143.667 103.319 143.511 103.163C143.472 103.124 143.433 103.046 143.394 103.007C143.277 102.89 143.199 102.773 143.121 102.656C143.082 102.578 143.043 102.539 142.965 102.5C142.926 102.461 142.887 102.383 142.848 102.344C142.809 102.305 142.809 102.266 142.77 102.266C142.77 102.266 142.731 102.227 142.731 102.188C142.574 101.993 142.457 101.798 142.301 101.603C142.223 101.486 142.145 101.408 142.106 101.291C142.028 101.174 141.989 101.095 141.911 100.978C141.872 100.939 141.833 100.861 141.794 100.822C141.677 100.627 141.56 100.471 141.443 100.276L141.404 100.237C141.287 100.003 141.131 99.808 141.014 99.5739C140.897 99.3788 140.78 99.1837 140.702 98.9497C140.663 98.8716 140.624 98.8326 140.624 98.7936C140.507 98.5985 140.429 98.3644 140.312 98.1693C140.234 98.0523 140.195 97.9353 140.156 97.8182C140.117 97.7012 140.038 97.5841 139.999 97.4671C139.96 97.35 139.921 97.233 139.843 97.1159C139.804 96.9989 139.765 96.8818 139.726 96.7648C139.726 96.7258 139.687 96.7258 139.687 96.6868C139.687 96.6478 139.648 96.5697 139.648 96.5307C139.609 96.4527 139.57 96.3746 139.57 96.2576C139.531 96.1796 139.531 96.1406 139.492 96.0625V96.0235V95.9845C139.492 95.9845 139.492 95.9845 139.492 95.9455C139.453 95.8284 139.414 95.7114 139.375 95.5943C139.336 95.4773 139.297 95.3993 139.258 95.2822C139.258 95.2432 139.219 95.2432 139.219 95.2042C139.18 95.1262 139.18 95.0481 139.141 94.9701C139.141 94.9311 139.102 94.8921 139.102 94.814V94.775C139.102 94.736 139.102 94.697 139.063 94.658C139.024 94.5799 139.024 94.4629 138.985 94.3849V94.3459C138.946 94.1898 138.907 93.9947 138.868 93.8387C138.868 93.7996 138.868 93.7606 138.829 93.7216C138.829 93.6826 138.829 93.6436 138.79 93.6046C138.751 93.4095 138.712 93.2144 138.673 93.0193C138.595 92.6682 138.556 92.3561 138.517 92.0049C138.478 91.8489 138.478 91.6538 138.439 91.4977C138.439 91.3807 138.4 91.2246 138.4 91.1076C138.4 90.9905 138.361 90.8735 138.361 90.7565C138.361 90.6394 138.361 90.5614 138.322 90.4443C138.322 90.3273 138.322 90.2493 138.322 90.1322C138.322 90.0932 138.322 90.0932 138.322 90.0542C138.322 90.0152 138.322 90.0152 138.322 89.9761C138.322 89.8981 138.322 89.8591 138.322 89.7811C138.322 89.703 138.322 89.664 138.322 89.586C138.322 89.547 138.322 89.508 138.322 89.508C138.322 89.3129 138.322 89.1178 138.322 88.9227C138.322 88.7277 138.322 88.5716 138.322 88.4155C138.322 88.3765 138.322 88.3375 138.322 88.2985V88.2595C138.322 88.2205 138.322 88.1424 138.322 88.1034C138.322 88.0254 138.322 87.9474 138.322 87.8693C138.322 87.7523 138.322 87.6352 138.322 87.5182C138.322 87.4792 138.322 87.4402 138.322 87.4011C138.322 87.3621 138.322 87.3621 138.322 87.3231C138.322 87.2841 138.322 87.2841 138.322 87.2841C138.322 87.167 138.361 87.011 138.361 86.8939C138.361 86.8549 138.361 86.8549 138.361 86.8159C138.361 86.7769 138.361 86.7379 138.361 86.6989C138.361 86.5818 138.4 86.4648 138.4 86.3477C138.4 86.3087 138.4 86.3087 138.4 86.2697C138.4 86.1917 138.439 86.1136 138.439 86.0356C138.439 85.9186 138.478 85.8405 138.478 85.7625C138.478 85.7625 138.478 85.7625 138.478 85.7235C138.478 85.6845 138.478 85.6454 138.517 85.6064C138.517 85.5284 138.556 85.4894 138.556 85.4114C138.556 85.3723 138.556 85.2943 138.595 85.2553C138.634 85.0992 138.673 84.9042 138.712 84.7481C138.751 84.6311 138.751 84.553 138.79 84.436V84.397C138.829 84.2799 138.829 84.1629 138.868 84.0068C138.868 83.9288 138.907 83.8898 138.907 83.8117C138.946 83.6557 138.985 83.4996 139.024 83.3436V83.3045C139.063 83.1485 139.102 82.9924 139.141 82.8364C139.18 82.6803 139.258 82.5242 139.297 82.3292C139.297 82.3292 139.297 82.3291 139.297 82.2901C139.336 82.0951 139.414 81.939 139.453 81.7829C139.492 81.6269 139.57 81.4708 139.609 81.3538C139.687 81.1977 139.726 81.0417 139.804 80.8466C139.843 80.7295 139.921 80.5735 139.96 80.4564V80.4174C139.96 80.3784 139.999 80.3394 139.999 80.3004C139.999 80.2614 140.038 80.2223 140.038 80.1833C140.038 80.1443 140.077 80.1053 140.077 80.0663C140.117 79.9492 140.195 79.8322 140.234 79.7541C140.273 79.6761 140.312 79.5591 140.39 79.442C140.39 79.403 140.429 79.403 140.429 79.364C140.507 79.2469 140.546 79.0909 140.624 78.9738C140.702 78.8568 140.741 78.7397 140.819 78.6227C140.897 78.5057 140.936 78.3886 141.014 78.2716C141.053 78.1935 141.092 78.1155 141.131 78.0375C141.248 77.8424 141.365 77.6083 141.482 77.4132C141.482 77.4132 141.482 77.3742 141.521 77.3742C141.56 77.3352 141.56 77.2962 141.599 77.2572C141.677 77.1401 141.716 77.0621 141.794 76.9451C141.794 76.906 141.833 76.867 141.872 76.828C141.872 76.828 141.872 76.789 141.911 76.789C141.989 76.6719 142.028 76.5939 142.106 76.4769C142.145 76.4378 142.145 76.3988 142.184 76.3598C142.301 76.2038 142.379 76.0867 142.496 75.9307C142.496 75.9307 142.496 75.9307 142.496 75.8916C142.574 75.7746 142.652 75.6966 142.731 75.5795C142.848 75.4235 143.004 75.2284 143.121 75.0723C143.16 75.0333 143.199 74.9943 143.199 74.9553C143.277 74.8382 143.355 74.7602 143.433 74.6432C143.511 74.5651 143.589 74.4481 143.667 74.37C143.706 74.331 143.745 74.292 143.784 74.253C143.901 74.136 144.018 73.9799 144.135 73.8628C144.252 73.7458 144.33 73.6287 144.447 73.5117C144.603 73.3556 144.798 73.1606 144.954 73.0045C145.032 72.9265 145.071 72.8875 145.149 72.8094C145.306 72.6534 145.501 72.4973 145.657 72.3412C145.774 72.2242 145.891 72.1462 145.969 72.0681C146.554 71.6 147.139 71.1318 147.802 70.7026C148.037 70.5466 148.232 70.4295 148.466 70.2734C148.505 70.2344 148.583 70.1954 148.622 70.1564C148.739 70.0784 148.856 70.0394 148.973 69.9613C149.012 69.9223 149.09 69.8833 149.129 69.8833C149.246 69.8443 149.324 69.7662 149.441 69.7272C149.558 69.6492 149.675 69.6102 149.792 69.5322C149.831 69.4931 149.87 69.4931 149.87 69.4931C149.87 69.4931 149.909 69.4931 149.909 69.4541C150.104 69.3371 150.299 69.259 150.495 69.142C150.534 69.142 150.534 69.103 150.573 69.103C150.651 69.064 150.69 69.0249 150.768 69.0249C150.768 69.0249 150.807 69.025 150.807 68.9859C150.963 68.9079 151.08 68.8689 151.236 68.7909C151.314 68.7519 151.392 68.7128 151.509 68.6738H151.548C151.704 68.5958 151.821 68.5568 151.977 68.4787C152.055 68.4397 152.133 68.4007 152.211 68.3617C152.289 68.3227 152.328 68.3227 152.406 68.2837C152.523 68.2446 152.64 68.2056 152.757 68.1666C152.796 68.1666 152.835 68.1276 152.874 68.1276C153.031 68.0886 153.148 68.0106 153.304 67.9715C153.46 67.9325 153.616 67.8545 153.772 67.8155C153.928 67.7765 154.045 67.7374 154.162 67.6984H154.201C154.279 67.6594 154.396 67.6594 154.474 67.6204C154.474 67.6204 154.513 67.6204 154.552 67.6204H154.591C154.669 67.5814 154.786 67.5814 154.864 67.5424C154.942 67.5034 155.02 67.5034 155.137 67.4643C155.176 67.4643 155.176 67.4643 155.215 67.4643C155.254 67.4643 155.332 67.4253 155.371 67.4253C155.371 67.4253 155.371 67.4253 155.41 67.4253H155.449C155.488 67.4253 155.488 67.4253 155.527 67.4253C155.567 67.4253 155.567 67.4253 155.606 67.4253H155.645H155.684H155.723C155.801 67.4253 155.879 67.3863 155.918 67.3863C155.957 67.3863 156.035 67.3473 156.074 67.3473C156.191 67.3083 156.269 67.3083 156.386 67.3083C156.425 67.3083 156.464 67.3083 156.542 67.2693C156.581 67.2693 156.659 67.2693 156.698 67.2693C156.737 67.2693 156.737 67.2693 156.776 67.2693H156.815C156.854 67.2693 156.893 67.2693 156.932 67.2693H156.971H157.01C157.049 67.2693 157.049 67.2693 157.088 67.2693C157.127 67.2693 157.166 67.2693 157.166 67.2693C157.244 67.2693 157.361 67.2303 157.439 67.2303C157.478 67.2303 157.517 67.2303 157.556 67.2303C157.634 67.2303 157.751 67.2303 157.829 67.1912C157.868 67.1912 157.907 67.1912 157.946 67.1912C158.024 67.1912 158.142 67.1912 158.22 67.1522C158.22 67.1522 158.259 67.1522 158.298 67.1522C158.337 67.1522 158.376 67.1522 158.415 67.1522C158.493 67.1522 158.532 67.1522 158.61 67.1522H158.805C158.883 67.1522 158.922 67.1522 159 67.1522C159.039 67.1522 159.078 67.1522 159.117 67.1522C159.195 67.1522 159.312 67.1522 159.39 67.1522C159.507 67.1522 159.663 67.1522 159.78 67.1522C159.975 67.1522 160.131 67.1522 160.326 67.1522C160.521 67.1522 160.717 67.1522 160.951 67.1912C160.99 67.1912 160.99 67.1912 161.029 67.1912C161.107 67.1912 161.146 67.1912 161.224 67.1912C161.302 67.1912 161.341 67.1912 161.419 67.1912C161.497 67.1912 161.575 67.1912 161.653 67.1912C161.809 67.1912 162.004 67.2303 162.16 67.2303C162.238 67.2303 162.355 67.2302 162.433 67.2693C162.628 67.3083 162.823 67.3083 162.979 67.3473C163.135 67.3863 163.331 67.3863 163.487 67.4253C163.682 67.4643 163.838 67.5034 164.033 67.5424C164.267 67.5814 164.501 67.6594 164.735 67.6984C164.852 67.7374 164.969 67.7765 165.086 67.7765C165.242 67.8155 165.359 67.8545 165.515 67.8935C165.593 67.9325 165.671 67.9325 165.749 67.9715C165.945 68.0106 166.14 68.0886 166.296 68.1276C166.374 68.1666 166.452 68.1666 166.569 68.2056C166.764 68.2447 166.92 68.3227 167.115 68.4007C167.232 68.4397 167.31 68.4787 167.388 68.5178C167.466 68.5568 167.544 68.5568 167.583 68.5958C167.739 68.6738 167.934 68.7128 168.09 68.7909C168.285 68.8689 168.52 68.9469 168.715 69.064C168.91 69.142 169.066 69.22 169.261 69.2981C169.3 69.2981 169.339 69.3371 169.378 69.3371C169.456 69.3761 169.534 69.4151 169.612 69.4541C169.963 69.6492 170.314 69.8053 170.704 70.0393C170.704 70.0393 170.743 70.0784 170.782 70.0784C170.86 70.1174 170.938 70.1564 171.017 70.1954C171.212 70.3125 171.446 70.4685 171.641 70.5856C171.797 70.7026 171.992 70.8197 172.148 70.9367C172.226 70.9757 172.304 71.0537 172.382 71.0928C172.46 71.1708 172.538 71.2098 172.616 71.2488C172.694 71.2878 172.733 71.3268 172.811 71.3659C172.85 71.4049 172.928 71.4439 173.006 71.4829C173.123 71.6 173.24 71.678 173.396 71.795C173.513 71.9121 173.631 71.9901 173.748 72.0681C173.865 72.1852 173.982 72.2632 174.099 72.3803C174.177 72.4583 174.255 72.4973 174.333 72.5753C174.372 72.6144 174.372 72.6144 174.411 72.6534C174.684 72.8875 174.918 73.1216 175.191 73.3947C175.269 73.4727 175.347 73.5507 175.386 73.5897C175.503 73.7068 175.62 73.8628 175.776 73.9799C175.815 74.0189 175.893 74.0969 175.932 74.1359C176.049 74.292 176.206 74.4091 176.323 74.5651C176.479 74.7602 176.674 74.9553 176.83 75.1503C176.908 75.2674 176.986 75.3454 177.064 75.4625C177.259 75.6966 177.415 75.9307 177.571 76.1647C177.61 76.2038 177.649 76.2428 177.649 76.2818C177.727 76.3988 177.805 76.4769 177.883 76.5939C177.961 76.711 178.039 76.828 178.117 76.9841C178.117 76.9841 178.117 77.0231 178.156 77.0231C178.234 77.1401 178.273 77.2182 178.351 77.3352C178.468 77.5303 178.585 77.7254 178.702 77.9204C178.781 78.0765 178.898 78.2326 178.976 78.4276C179.093 78.6617 179.21 78.8958 179.327 79.1299C179.405 79.286 179.483 79.403 179.522 79.5591C179.6 79.7151 179.678 79.8712 179.717 79.9882C179.756 80.1053 179.795 80.1833 179.834 80.3004C179.912 80.4954 179.99 80.6905 180.068 80.8856C180.146 81.1197 180.224 81.3148 180.302 81.5488C180.38 81.7049 180.419 81.861 180.458 82.0561V82.0951C180.497 82.1341 180.497 82.2121 180.497 82.2901C180.536 82.3682 180.536 82.4072 180.536 82.4852C180.614 82.6803 180.653 82.8754 180.731 83.0704C180.731 83.0704 180.731 83.0704 180.731 83.1095C180.809 83.3435 180.848 83.6167 180.926 83.8507C180.926 83.8898 180.965 83.9678 180.965 84.0068C181.004 84.2409 181.082 84.475 181.121 84.7091C181.16 84.8261 181.16 84.9822 181.199 85.0992V85.1383V85.1773C181.199 85.1773 181.199 85.1773 181.199 85.2163C181.199 85.2943 181.238 85.3723 181.238 85.4504C181.238 85.4894 181.238 85.4894 181.238 85.5284C181.238 85.5674 181.238 85.6064 181.238 85.6454V85.6845V85.7235C181.238 85.7625 181.238 85.7625 181.238 85.8015C181.238 85.8405 181.238 85.8795 181.238 85.9186C181.238 85.9966 181.277 86.0746 181.277 86.1917C181.277 86.2307 181.277 86.2697 181.277 86.3087C181.277 86.4258 181.317 86.5428 181.317 86.6598C181.317 86.6598 181.317 86.6599 181.317 86.6989C181.317 86.7379 181.317 86.7379 181.317 86.7769C181.317 86.8159 181.317 86.8159 181.317 86.8549C181.317 86.8939 181.317 86.972 181.317 87.011C181.317 87.089 181.317 87.167 181.317 87.2061C181.317 87.2451 181.317 87.2841 181.317 87.2841C181.317 87.3231 181.317 87.3621 181.317 87.4011C181.317 87.4792 181.317 87.5572 181.317 87.6352V87.6742V87.7133C181.317 87.8303 181.317 87.9864 181.317 88.1034C181.317 88.1424 181.317 88.1424 181.317 88.1814C181.317 88.3765 181.317 88.6106 181.317 88.8057C181.317 89.508 181.277 90.2102 181.199 90.9125C181.121 91.6148 181.043 92.3171 180.887 93.0193C180.848 93.1754 180.809 93.3315 180.77 93.4485C180.77 93.4485 180.77 93.4485 180.77 93.4875C180.731 93.6046 180.731 93.7216 180.692 93.8777V93.9167C180.692 93.9557 180.692 93.9557 180.692 93.9947C180.692 94.0337 180.692 94.0728 180.653 94.1118C180.614 94.1898 180.614 94.2678 180.575 94.3459C180.575 94.3849 180.536 94.4239 180.536 94.4629V94.5019V94.5409C181.043 94.9311 181.043 95.0091 181.004 95.0871Z" fill="#90A4AE"/>
<path d="M177.836 101.71L175.553 104.143L179.626 107.966L181.909 105.533L177.836 101.71Z" fill="#90A4AE"/>
<path d="M208.409 132.671C207.322 133.833 205.485 133.871 204.322 132.783L178.079 108.152L182.016 103.953L208.259 128.584C209.421 129.709 209.496 131.509 208.409 132.671Z" fill="#3DBC62"/>
<defs>
<clipPath id="clip0_97_6873">
<rect width="61.9025" height="46.0301" fill="white" transform="translate(127.508 50.792)"/>
</clipPath>
</defs>
</svg>
