<svg width="257" height="168" viewBox="0 0 257 168" fill="none" xmlns="http://www.w3.org/2000/svg">
<path d="M9.92353 0.0977955H247.48C252.612 0.0977955 256.771 4.25733 256.771 9.38837V158.379C256.771 163.51 252.612 167.67 247.48 167.67H9.92351C4.79246 167.67 0.632952 163.51 0.632952 158.379V9.38836C0.632952 4.25731 4.79248 0.0977955 9.92353 0.0977955Z" fill="white" stroke="black" stroke-width="0.195591"/>
<path d="M6.52837 10.8929C6.52837 9.84554 7.11022 9.45766 7.61449 9.45766C8.27392 9.45766 8.70061 10.0395 8.70061 10.8541C8.70061 11.8238 8.15755 12.2505 7.61449 12.2505C6.87748 12.2893 6.52837 11.5523 6.52837 10.8929ZM7.88603 8.25513C7.11022 8.25513 6.68353 8.60424 6.45079 8.83698C6.412 8.64303 6.29563 8.37152 5.75257 8.37152H4.58887V9.574H5.05433C5.13191 9.574 5.17072 9.61281 5.17072 9.69039V15.2373H6.56715V13.1427C6.56715 13.1039 6.56715 13.0263 6.56715 12.9875C6.7611 13.1815 7.18779 13.453 7.84722 13.453C9.20488 13.453 10.1358 12.3669 10.1358 10.8541C10.0971 9.30249 9.20489 8.25513 7.88603 8.25513Z" fill="white"/>
<path d="M7.34337 33.6626C9.48569 33.6626 11.2224 31.9259 11.2224 29.7836C11.2224 27.6412 9.48569 25.9045 7.34337 25.9045C5.20105 25.9045 3.46436 27.6412 3.46436 29.7836C3.46436 31.9259 5.20105 33.6626 7.34337 33.6626Z" fill="white"/>
<path d="M7.34337 50.9243C9.48569 50.9243 11.2224 49.1876 11.2224 47.0453C11.2224 44.903 9.48569 43.1663 7.34337 43.1663C5.20105 43.1663 3.46436 44.903 3.46436 47.0453C3.46436 49.1876 5.20105 50.9243 7.34337 50.9243Z" fill="white"/>
<path d="M7.34337 68.1469C9.48569 68.1469 11.2224 66.4102 11.2224 64.2679C11.2224 62.1256 9.48569 60.3889 7.34337 60.3889C5.20105 60.3889 3.46436 62.1256 3.46436 64.2679C3.46436 66.4102 5.20105 68.1469 7.34337 68.1469Z" fill="white"/>
<path d="M7.34337 85.4087C9.48569 85.4087 11.2224 83.672 11.2224 81.5296C11.2224 79.3873 9.48569 77.6506 7.34337 77.6506C5.20105 77.6506 3.46436 79.3873 3.46436 81.5296C3.46436 83.672 5.20105 85.4087 7.34337 85.4087Z" fill="white"/>
<path d="M7.34337 109.691C9.48569 109.691 11.2224 107.954 11.2224 105.812C11.2224 103.67 9.48569 101.933 7.34337 101.933C5.20105 101.933 3.46436 103.67 3.46436 105.812C3.46436 107.954 5.20105 109.691 7.34337 109.691Z" fill="white"/>
<path d="M7.34337 127.263C9.48569 127.263 11.2224 125.526 11.2224 123.384C11.2224 121.242 9.48569 119.505 7.34337 119.505C5.20105 119.505 3.46436 121.242 3.46436 123.384C3.46436 125.526 5.20105 127.263 7.34337 127.263Z" fill="white"/>
<path d="M7.34337 144.874C9.48569 144.874 11.2224 143.137 11.2224 140.995C11.2224 138.853 9.48569 137.116 7.34337 137.116C5.20105 137.116 3.46436 138.853 3.46436 140.995C3.46436 143.137 5.20105 144.874 7.34337 144.874Z" fill="white"/>
<path d="M7.34337 162.446C9.48569 162.446 11.2224 160.709 11.2224 158.567C11.2224 156.425 9.48569 154.688 7.34337 154.688C5.20105 154.688 3.46436 156.425 3.46436 158.567C3.46436 160.709 5.20105 162.446 7.34337 162.446Z" fill="white"/>
<path d="M2.06787 95.3H12.6188" stroke="white" stroke-width="0.391182" stroke-miterlimit="10"/>
<path d="M0 158.921V4.264C0 2.0524 1.78338 0.267578 3.99324 0.267578H16.3219V167.767H8.8394C3.95447 167.767 0 163.81 0 158.921Z" fill="#014722"/>
<path d="M117.464 167.767H25.687V37.3083C25.687 33.1162 29.102 29.7004 33.2931 29.7004H109.858C114.049 29.7004 117.464 33.1162 117.464 37.3083V167.767Z" fill="#EDEEF0"/>
<path d="M105.824 101.945H35.9882C33.8543 101.945 32.1084 100.192 32.1084 98.0494V79.3509C32.1084 77.2083 33.8543 75.4553 35.9882 75.4553H105.824C107.958 75.4553 109.704 77.2083 109.704 79.3509V98.0494C109.704 100.192 107.997 101.945 105.824 101.945Z" fill="white"/>
<path d="M105.824 138.87H35.9882C33.8543 138.87 32.1084 137.134 32.1084 135.014V116.504C32.1084 114.383 33.8543 112.648 35.9882 112.648H105.824C107.958 112.648 109.704 114.383 109.704 116.504V135.014C109.704 137.134 107.997 138.87 105.824 138.87Z" fill="white"/>
<path d="M105.824 64.2174H35.9882C33.8543 64.2174 32.1084 62.4821 32.1084 60.3612V41.8515C32.1084 39.7306 33.8543 37.9954 35.9882 37.9954H105.824C107.958 37.9954 109.704 39.7306 109.704 41.8515V60.3612C109.704 62.5207 107.997 64.2174 105.824 64.2174Z" fill="white"/>
<path d="M185.696 134.67C208.609 134.67 227.184 116.01 227.184 92.991C227.184 69.9723 208.609 51.312 185.696 51.312C162.782 51.312 144.208 69.9723 144.208 92.991C144.208 116.01 162.782 134.67 185.696 134.67Z" fill="#3DBC62"/>
<path d="M7.69244 8.29398C7.69244 7.24664 8.27429 6.85874 8.77856 6.85874C9.43799 6.85874 9.86468 7.4406 9.86468 8.25519C9.86468 9.22494 9.32162 9.65163 8.77856 9.65163C8.00276 9.69042 7.69244 8.95341 7.69244 8.29398ZM9.05009 5.65625C8.27429 5.65625 7.8476 6.00536 7.61486 6.2381C7.57607 6.04415 7.45969 5.77262 6.91663 5.77262H5.75293V6.97511H6.21841C6.29599 6.97511 6.33478 7.0139 6.33478 7.09148V12.6385H7.73123V10.5438C7.73123 10.505 7.73123 10.4274 7.73123 10.3886C7.92518 10.5826 8.35187 10.8541 9.0113 10.8541C10.369 10.8541 11.2999 9.768 11.2999 8.25519C11.2611 6.70358 10.369 5.65625 9.05009 5.65625Z" fill="white"/>
<path d="M8.50743 31.0637C10.6497 31.0637 12.3864 29.327 12.3864 27.1847C12.3864 25.0424 10.6497 23.3057 8.50743 23.3057C6.36511 23.3057 4.62842 25.0424 4.62842 27.1847C4.62842 29.327 6.36511 31.0637 8.50743 31.0637Z" fill="white"/>
<path d="M8.50743 48.3254C10.6497 48.3254 12.3864 46.5887 12.3864 44.4464C12.3864 42.3041 10.6497 40.5674 8.50743 40.5674C6.36511 40.5674 4.62842 42.3041 4.62842 44.4464C4.62842 46.5887 6.36511 48.3254 8.50743 48.3254Z" fill="white"/>
<path d="M8.50743 65.5481C10.6497 65.5481 12.3864 63.8114 12.3864 61.6691C12.3864 59.5267 10.6497 57.79 8.50743 57.79C6.36511 57.79 4.62842 59.5267 4.62842 61.6691C4.62842 63.8114 6.36511 65.5481 8.50743 65.5481Z" fill="white"/>
<path d="M8.50743 82.8098C10.6497 82.8098 12.3864 81.0731 12.3864 78.9308C12.3864 76.7885 10.6497 75.0518 8.50743 75.0518C6.36511 75.0518 4.62842 76.7885 4.62842 78.9308C4.62842 81.0731 6.36511 82.8098 8.50743 82.8098Z" fill="white"/>
<path d="M8.50743 107.092C10.6497 107.092 12.3864 105.356 12.3864 103.213C12.3864 101.071 10.6497 99.3345 8.50743 99.3345C6.36511 99.3345 4.62842 101.071 4.62842 103.213C4.62842 105.356 6.36511 107.092 8.50743 107.092Z" fill="white"/>
<path d="M8.50743 124.664C10.6497 124.664 12.3864 122.928 12.3864 120.785C12.3864 118.643 10.6497 116.906 8.50743 116.906C6.36511 116.906 4.62842 118.643 4.62842 120.785C4.62842 122.928 6.36511 124.664 8.50743 124.664Z" fill="white"/>
<path d="M8.50743 142.275C10.6497 142.275 12.3864 140.538 12.3864 138.396C12.3864 136.254 10.6497 134.517 8.50743 134.517C6.36511 134.517 4.62842 136.254 4.62842 138.396C4.62842 140.538 6.36511 142.275 8.50743 142.275Z" fill="white"/>
<path d="M8.50743 159.847C10.6497 159.847 12.3864 158.11 12.3864 155.968C12.3864 153.826 10.6497 152.089 8.50743 152.089C6.36511 152.089 4.62842 153.826 4.62842 155.968C4.62842 158.11 6.36511 159.847 8.50743 159.847Z" fill="white"/>
<path d="M3.23145 92.7009H13.7824" stroke="white" stroke-width="0.391182" stroke-miterlimit="10"/>
<path d="M153.32 97.4973C152.397 96.5797 152.397 95.0864 153.32 94.1687L156.82 90.6881C157.736 89.7777 159.215 89.7777 160.13 90.6881L173.893 104.373C174.808 105.284 176.287 105.284 177.203 104.373L211.451 70.3159C212.367 69.4055 213.846 69.4055 214.761 70.3159L218.262 73.7966C219.184 74.7142 219.184 76.2075 218.262 77.1252L177.203 117.955C176.287 118.865 174.808 118.865 173.893 117.955L153.32 97.4973Z" fill="white"/>
</svg>
