<svg width="257" height="168" viewBox="0 0 257 168" fill="none" xmlns="http://www.w3.org/2000/svg">
<path d="M9.27262 0.0956742H247.546C252.566 0.0956742 256.635 4.16498 256.635 9.18472V158.785C256.635 163.805 252.566 167.874 247.546 167.874H9.27263C4.25288 167.874 0.183565 163.805 0.183565 158.785V9.18473C0.183565 4.16498 4.25287 0.0956742 9.27262 0.0956742Z" fill="white" stroke="#03721A" stroke-width="0.191348"/>
<path d="M0 159.137V4.00764C0 1.78983 1.64608 0 3.68578 0H15.0294V167.97H8.15881C3.64999 167.97 0 164.001 0 159.137Z" fill="#014722"/>
<path d="M6.04703 16.9499C6.04703 15.9838 6.58379 15.6259 7.04899 15.6259C7.65732 15.6259 8.05094 16.1627 8.05094 16.9141C8.05094 17.8087 7.54997 18.2024 7.04899 18.2024C6.3333 18.2382 6.04703 17.5583 6.04703 16.9499ZM7.29947 14.5166C6.58379 14.5166 6.19016 14.8387 5.97546 15.0534C5.93967 14.8744 5.83232 14.624 5.33134 14.624H4.25781V15.7333H4.68722C4.75879 15.7333 4.79458 15.769 4.79458 15.8406V20.9578H6.08281V19.0254C6.08281 18.9896 6.08281 18.918 6.08281 18.8823C6.26173 19.0612 6.65536 19.3117 7.26369 19.3117C8.51614 19.3117 9.37496 18.3097 9.37496 16.9141C9.33918 15.4828 8.51614 14.5166 7.29947 14.5166Z" fill="white"/>
<path d="M6.79913 37.9554C8.77544 37.9554 10.3776 36.3533 10.3776 34.377C10.3776 32.4007 8.77544 30.7986 6.79913 30.7986C4.82282 30.7986 3.2207 32.4007 3.2207 34.377C3.2207 36.3533 4.82282 37.9554 6.79913 37.9554Z" fill="white"/>
<path d="M6.79913 53.8793C8.77544 53.8793 10.3776 52.2771 10.3776 50.3008C10.3776 48.3245 8.77544 46.7224 6.79913 46.7224C4.82282 46.7224 3.2207 48.3245 3.2207 50.3008C3.2207 52.2771 4.82282 53.8793 6.79913 53.8793Z" fill="white"/>
<path d="M6.79913 69.8033C8.77544 69.8033 10.3776 68.2012 10.3776 66.2249C10.3776 64.2486 8.77544 62.6465 6.79913 62.6465C4.82282 62.6465 3.2207 64.2486 3.2207 66.2249C3.2207 68.2012 4.82282 69.8033 6.79913 69.8033Z" fill="white"/>
<path d="M6.79913 85.6915C8.77544 85.6915 10.3776 84.0894 10.3776 82.1131C10.3776 80.1368 8.77544 78.5347 6.79913 78.5347C4.82282 78.5347 3.2207 80.1368 3.2207 82.1131C3.2207 84.0894 4.82282 85.6915 6.79913 85.6915Z" fill="white"/>
<path d="M6.79913 108.093C8.77544 108.093 10.3776 106.491 10.3776 104.514C10.3776 102.538 8.77544 100.936 6.79913 100.936C4.82282 100.936 3.2207 102.538 3.2207 104.514C3.2207 106.491 4.82282 108.093 6.79913 108.093Z" fill="white"/>
<path d="M6.79913 124.303C8.77544 124.303 10.3776 122.7 10.3776 120.724C10.3776 118.748 8.77544 117.146 6.79913 117.146C4.82282 117.146 3.2207 118.748 3.2207 120.724C3.2207 122.7 4.82282 124.303 6.79913 124.303Z" fill="white"/>
<path d="M6.79913 140.549C8.77544 140.549 10.3776 138.947 10.3776 136.97C10.3776 134.994 8.77544 133.392 6.79913 133.392C4.82282 133.392 3.2207 134.994 3.2207 136.97C3.2207 138.947 4.82282 140.549 6.79913 140.549Z" fill="white"/>
<path d="M6.79913 156.795C8.77544 156.795 10.3776 155.193 10.3776 153.216C10.3776 151.24 8.77544 149.638 6.79913 149.638C4.82282 149.638 3.2207 151.24 3.2207 153.216C3.2207 155.193 4.82282 156.795 6.79913 156.795Z" fill="white"/>
<path d="M11.6654 94.4585H1.93213V95.1742H11.6654V94.4585Z" fill="white"/>
<path d="M94.0407 22.3898V39.5305H24.9771V22.3898C24.9771 20.2428 26.6947 18.5251 28.8417 18.5251H90.176C92.323 18.5251 94.0407 20.2428 94.0407 22.3898Z" fill="#CFD0F9"/>
<path d="M94.0405 44.5754V152.666C94.0405 154.96 92.3229 156.795 90.1758 156.795H28.8774C26.7303 156.795 25.0127 154.96 25.0127 152.666V44.5754H94.0405Z" fill="#EDEEF0"/>
<path d="M256.869 45.4534V63.4904C256.869 63.8617 253.127 64.1711 248.512 64.1711H115.88C111.264 64.1711 107.522 63.8617 107.522 63.4904V45.4534H256.869Z" fill="#EDEEF0"/>
<path d="M256.869 76.3882V94.4253C256.869 94.7965 253.127 95.1059 248.512 95.1059H115.88C111.264 95.1059 107.522 94.7965 107.522 94.4253V76.3882H256.869Z" fill="#EDEEF0"/>
<path d="M256.869 107.323V125.36C256.869 125.731 253.127 126.04 248.512 126.04H115.88C111.264 126.04 107.522 125.731 107.522 125.36V107.323H256.869Z" fill="#EDEEF0"/>
<path d="M256.869 138.258V156.295C256.869 156.666 253.127 156.975 248.512 156.975H115.88C111.264 156.975 107.522 156.666 107.522 156.295V138.258H256.869Z" fill="#EDEEF0"/>
<path d="M42.6198 26.7464C42.6198 28.2136 41.4389 29.3945 39.9718 29.3945C38.5046 29.3945 37.3237 28.2136 37.3237 26.7464C37.3237 25.2793 38.5046 24.0984 39.9718 24.0984C41.4031 24.0984 42.6198 25.2793 42.6198 26.7464Z" fill="#4F0B7F"/>
<path d="M43.9076 29.8237V32.1497C43.9076 32.1855 43.9076 32.2213 43.8718 32.2213C42.834 33.2232 41.4384 33.8674 39.8997 33.8674C38.3252 33.8674 36.8938 33.2232 35.8561 32.1497C35.8203 32.1139 35.8203 32.0782 35.8203 32.0782V29.9669C35.8203 29.8953 35.8919 29.8595 35.9277 29.8595H43.9076V29.8237Z" fill="#4F0B7F"/>
<path d="M56.1821 29.2512C56.0389 29.5017 55.8242 29.6806 55.5738 29.8595C55.3233 30.0385 54.9296 30.0742 54.5002 30.0742H53.6056V32.0782H52.5679V26.8179H54.5002C54.8939 26.8179 55.2517 26.8894 55.538 27.0326C55.8242 27.1757 56.0389 27.3547 56.1821 27.6052C56.3252 27.8556 56.3968 28.1419 56.3968 28.4282C56.361 28.7502 56.2894 29.0007 56.1821 29.2512ZM55.0728 29.0365C55.2159 28.8934 55.2875 28.7144 55.2875 28.4639C55.2875 27.963 55.0012 27.7125 54.4287 27.7125H53.6056V29.2512H54.4287C54.7149 29.2154 54.9296 29.1439 55.0728 29.0365Z" fill="#4F0B7F"/>
<path d="M60.9412 30.3249H57.8996C57.9353 30.6112 58.0427 30.8617 58.2216 31.0406C58.4005 31.2196 58.651 31.2911 58.9015 31.2911C59.2952 31.2911 59.5814 31.1122 59.7246 30.7901H60.8697C60.7623 31.1837 60.5118 31.5058 60.1898 31.7921C59.8319 32.0426 59.4383 32.1857 58.9373 32.1857C58.5437 32.1857 58.1858 32.1142 57.8638 31.9352C57.5417 31.7563 57.2912 31.5058 57.1123 31.1838C56.9334 30.8617 56.8618 30.4681 56.8618 30.0387C56.8618 29.6092 56.9334 29.2156 57.1123 28.8936C57.2912 28.5715 57.5417 28.321 57.8638 28.1421C58.1858 27.9632 58.5437 27.8916 58.9373 27.8916C59.3309 27.8916 59.6888 27.9632 60.0108 28.1421C60.3329 28.321 60.5834 28.5715 60.7265 28.8578C60.8697 29.1441 60.977 29.5377 60.977 29.9313C60.977 30.0745 60.977 30.2176 60.9412 30.3249ZM59.9035 29.6093C59.9035 29.323 59.7961 29.1083 59.6172 28.9651C59.4383 28.822 59.1878 28.7147 58.9015 28.7147C58.651 28.7147 58.4363 28.7862 58.2574 28.9651C58.0785 29.1083 57.9711 29.3588 57.9353 29.6093H59.9035Z" fill="#4F0B7F"/>
<path d="M62.5153 31.8995C62.1932 31.7205 61.9427 31.47 61.7638 31.148C61.5849 30.8259 61.4775 30.4323 61.4775 30.0029C61.4775 29.5735 61.5849 29.2156 61.7638 28.8936C61.9427 28.5715 62.1932 28.321 62.5511 28.1421C62.9089 27.9632 63.231 27.8916 63.6246 27.8916C64.0182 27.8916 64.3761 27.9632 64.6981 28.1421C65.0202 28.321 65.2707 28.5715 65.4854 28.8936C65.7001 29.2156 65.7717 29.6093 65.7717 30.0029C65.7717 30.4323 65.6643 30.7901 65.4854 31.148C65.3065 31.47 65.0202 31.7205 64.6981 31.8995C64.3761 32.0784 64.0182 32.1499 63.5888 32.1499C63.1952 32.1499 62.8373 32.0784 62.5153 31.8995ZM64.1256 31.1122C64.3045 31.0048 64.4118 30.8975 64.5192 30.6828C64.6266 30.5039 64.6623 30.2892 64.6623 30.0029C64.6623 29.6093 64.555 29.2872 64.3403 29.0725C64.1256 28.8578 63.8751 28.7504 63.5888 28.7504C63.3025 28.7504 63.052 28.8578 62.8373 29.0725C62.6226 29.2872 62.5153 29.5735 62.5153 30.0029C62.5153 30.3965 62.6226 30.7186 62.8016 30.9333C63.0163 31.148 63.231 31.2553 63.553 31.2553C63.8035 31.2553 63.9824 31.1838 64.1256 31.1122Z" fill="#4F0B7F"/>
<path d="M68.1694 28.0346C68.4199 27.8915 68.6704 27.8557 68.9924 27.8557C69.3503 27.8557 69.6723 27.9273 69.9586 28.1062C70.2449 28.2851 70.4596 28.5356 70.6385 28.8577C70.8174 29.1797 70.889 29.5376 70.889 29.967C70.889 30.3964 70.8174 30.7542 70.6385 31.1121C70.4596 31.4699 70.2449 31.6846 69.9586 31.8635C69.6723 32.0425 69.3503 32.1498 68.9924 32.1498C68.6704 32.1498 68.4199 32.0783 68.1694 31.9709C67.9189 31.8636 67.74 31.6846 67.5968 31.5057V34.0822H66.5591V27.9273H67.5968V28.5356C67.74 28.3209 67.9189 28.1778 68.1694 28.0346ZM69.6365 29.3586C69.5292 29.1797 69.386 29.0366 69.2429 28.9292C69.064 28.8219 68.8851 28.7861 68.7061 28.7861C68.5272 28.7861 68.3483 28.8219 68.1694 28.9292C67.9905 29.0366 67.8831 29.1797 67.7757 29.3586C67.6684 29.5376 67.6326 29.7523 67.6326 30.0028C67.6326 30.2533 67.6684 30.468 67.7757 30.6469C67.8831 30.8258 68.0262 30.9689 68.1694 31.0763C68.3483 31.1836 68.5272 31.2194 68.7061 31.2194C68.8851 31.2194 69.0998 31.1836 69.2429 31.0763C69.4218 30.9689 69.5292 30.8258 69.6365 30.6469C69.7439 30.468 69.7797 30.2533 69.7797 30.0028C69.7797 29.7523 69.7439 29.5376 69.6365 29.3586Z" fill="#4F0B7F"/>
<path d="M72.6784 26.5317V32.0783H71.6406V26.5317H72.6784Z" fill="#4F0B7F"/>
<path d="M77.5809 30.3249H74.5392C74.575 30.6112 74.6823 30.8617 74.8613 31.0406C75.0402 31.2196 75.2907 31.2911 75.5412 31.2911C75.9348 31.2911 76.2211 31.1122 76.3642 30.7901H77.5093C77.402 31.1837 77.1515 31.5058 76.8294 31.7921C76.4716 32.0426 76.0779 32.1857 75.577 32.1857C75.1833 32.1857 74.8255 32.1142 74.5034 31.9352C74.1814 31.7563 73.9309 31.5058 73.752 31.1838C73.573 30.8617 73.5015 30.4681 73.5015 30.0387C73.5015 29.6092 73.573 29.2156 73.752 28.8936C73.9309 28.5715 74.1814 28.321 74.5034 28.1421C74.8255 27.9632 75.1833 27.8916 75.577 27.8916C75.9706 27.8916 76.3284 27.9632 76.6505 28.1421C76.9725 28.321 77.223 28.5715 77.3662 28.8578C77.5093 29.1441 77.6167 29.5377 77.6167 29.9313C77.5809 30.0745 77.5809 30.2176 77.5809 30.3249ZM76.5073 29.6093C76.5073 29.323 76.4 29.1083 76.2211 28.9651C76.0421 28.822 75.7917 28.7147 75.5054 28.7147C75.2549 28.7147 75.0402 28.7862 74.8613 28.9651C74.6823 29.1083 74.575 29.3588 74.5392 29.6093H76.5073Z" fill="#4F0B7F"/>
<path d="M176.586 22.3898V39.5305H107.522V22.3898C107.522 20.2428 109.24 18.5251 111.387 18.5251H172.721C174.868 18.5251 176.586 20.2428 176.586 22.3898Z" fill="#03721A"/>
<path d="M138.726 29.511C138.583 29.7615 138.368 29.9404 138.118 30.1193C137.867 30.2982 137.474 30.334 137.044 30.334H136.15V32.338H135.112V27.0776H137.044C137.438 27.0776 137.796 27.1492 138.082 27.2924C138.368 27.4355 138.583 27.6144 138.726 27.8649C138.869 28.1154 138.941 28.4017 138.941 28.6879C138.905 28.9742 138.869 29.2605 138.726 29.511ZM137.617 29.2605C137.76 29.1174 137.831 28.9384 137.831 28.6879C137.831 28.1869 137.545 27.9365 136.973 27.9365H136.15V29.4752H136.973C137.259 29.4752 137.474 29.4036 137.617 29.2605Z" fill="white"/>
<path d="M143.521 30.5486H140.48C140.515 30.8349 140.623 31.0853 140.802 31.2643C140.981 31.4432 141.231 31.5147 141.482 31.5147C141.875 31.5147 142.161 31.3358 142.305 31.0138H143.45C143.342 31.4074 143.092 31.7295 142.77 32.0157C142.412 32.2662 142.018 32.4093 141.517 32.4093C141.124 32.4093 140.766 32.3378 140.444 32.1589C140.122 31.98 139.871 31.7295 139.692 31.4074C139.513 31.0854 139.442 30.6917 139.442 30.2623C139.442 29.8329 139.513 29.4393 139.692 29.1172C139.871 28.7952 140.122 28.5447 140.444 28.3658C140.766 28.1868 141.124 28.1152 141.517 28.1152C141.911 28.1152 142.269 28.1868 142.591 28.3658C142.913 28.5447 143.163 28.7952 143.307 29.0814C143.45 29.3677 143.557 29.7613 143.557 30.155C143.521 30.2981 143.521 30.4412 143.521 30.5486ZM142.448 29.8687C142.448 29.5824 142.34 29.3677 142.162 29.2245C141.983 29.0814 141.732 28.9741 141.446 28.9741C141.195 28.9741 140.981 29.0456 140.802 29.2245C140.623 29.3677 140.515 29.6182 140.48 29.8687H142.448Z" fill="white"/>
<path d="M145.883 28.2942C146.098 28.1868 146.348 28.1152 146.635 28.1152V29.2245H146.348C146.026 29.2245 145.776 29.2961 145.597 29.4751C145.418 29.6182 145.346 29.9044 145.346 30.2981V32.3736H144.309V28.2226H145.346V28.8667C145.489 28.5804 145.668 28.4015 145.883 28.2942Z" fill="white"/>
<path d="M148.03 32.1947C147.744 32.0874 147.529 31.9084 147.386 31.6937C147.243 31.479 147.136 31.2643 147.136 30.9781H148.209C148.245 31.1212 148.317 31.2643 148.46 31.3717C148.603 31.479 148.782 31.5148 148.961 31.5148C149.175 31.5148 149.319 31.4791 149.426 31.4075C149.533 31.3359 149.605 31.2286 149.605 31.0854C149.605 30.9423 149.533 30.8349 149.39 30.7634C149.247 30.6918 149.032 30.6202 148.746 30.5487C148.424 30.4771 148.173 30.4055 147.995 30.2981C147.78 30.2266 147.637 30.0834 147.494 29.9403C147.35 29.7972 147.279 29.5467 147.279 29.2604C147.279 29.0457 147.35 28.831 147.494 28.6163C147.637 28.4374 147.816 28.2584 148.066 28.1511C148.317 28.0437 148.603 27.9722 148.925 27.9722C149.426 27.9722 149.82 28.0795 150.106 28.33C150.392 28.5805 150.571 28.9026 150.607 29.332H149.605C149.605 29.1531 149.533 29.0457 149.39 28.9384C149.283 28.831 149.104 28.7952 148.889 28.7952C148.71 28.7952 148.567 28.831 148.46 28.9026C148.352 28.9742 148.317 29.0815 148.317 29.1888C148.317 29.332 148.388 29.4393 148.531 29.5109C148.674 29.5825 148.889 29.654 149.175 29.7256C149.462 29.7972 149.712 29.8688 149.927 29.9761C150.142 30.0835 150.285 30.1908 150.428 30.334C150.571 30.5129 150.643 30.7276 150.643 31.0138C150.643 31.2643 150.571 31.479 150.428 31.658C150.285 31.8369 150.106 31.98 149.855 32.0874C149.605 32.1947 149.319 32.2663 148.997 32.2663C148.603 32.4094 148.281 32.3379 148.03 32.1947Z" fill="white"/>
<path d="M152.181 32.1231C151.859 31.9442 151.608 31.6937 151.429 31.3716C151.25 31.0495 151.143 30.6559 151.143 30.2265C151.143 29.7971 151.25 29.4393 151.429 29.1172C151.608 28.7952 151.859 28.5447 152.217 28.3658C152.574 28.1868 152.896 28.1152 153.29 28.1152C153.684 28.1152 154.042 28.1868 154.364 28.3658C154.686 28.5447 154.936 28.7952 155.151 29.1172C155.366 29.4393 155.437 29.8329 155.437 30.2265C155.437 30.6559 155.33 31.0138 155.151 31.3716C154.972 31.6937 154.686 31.9442 154.364 32.1231C154.042 32.302 153.684 32.3736 153.254 32.3736C152.896 32.4094 152.503 32.302 152.181 32.1231ZM153.827 31.3358C154.006 31.2285 154.113 31.1211 154.221 30.9064C154.328 30.7275 154.364 30.5128 154.364 30.2265C154.364 29.8329 154.256 29.5108 154.042 29.2961C153.827 29.0814 153.576 28.9741 153.29 28.9741C153.004 28.9741 152.753 29.0814 152.539 29.2961C152.324 29.5108 152.217 29.7971 152.217 30.2265C152.217 30.6201 152.324 30.9422 152.503 31.1569C152.718 31.3716 152.932 31.479 153.254 31.479C153.469 31.479 153.648 31.4432 153.827 31.3358Z" fill="white"/>
<path d="M159.732 28.5804C160.054 28.9025 160.197 29.3319 160.197 29.9044V32.3378H159.159V30.0476C159.159 29.7255 159.088 29.4751 158.909 29.2961C158.73 29.1172 158.515 29.0456 158.229 29.0456C157.943 29.0456 157.692 29.1172 157.549 29.2961C157.406 29.4751 157.298 29.7255 157.298 30.0476V32.3378H156.261V28.1868H157.298V28.6878C157.442 28.5089 157.621 28.3657 157.835 28.2584C158.05 28.151 158.3 28.1152 158.551 28.1152C159.016 28.1152 159.446 28.2584 159.732 28.5804Z" fill="white"/>
<path d="M127.597 30.2981H125.164V32.803H123.447V30.2981H121.013V28.7236H123.447V26.2188H125.164V28.7236H127.597V30.2981Z" fill="white"/>
</svg>
