<svg width="257" height="169" viewBox="0 0 257 169" fill="none" xmlns="http://www.w3.org/2000/svg">
<path d="M9.54789 0.0994572H247.321C252.539 0.0994572 256.769 4.32966 256.769 9.54789V158.57C256.769 163.788 252.539 168.018 247.321 168.018H9.54787C4.32965 168.018 0.0994572 163.788 0.0994572 158.57V9.54788C0.0994572 4.32966 4.32966 0.0994572 9.54789 0.0994572Z" fill="white" stroke="black" stroke-width="0.198914"/>
<path d="M68.6704 129.883L52.4419 130.012L52.6013 149.931L68.8298 149.801L68.6704 129.883Z" fill="#85DA95"/>
<path d="M93.8183 115.96L77.5898 116.09L77.8594 149.763L94.0879 149.633L93.8183 115.96Z" fill="#017737"/>
<path d="M125.264 103.883L109.036 104.013L109.4 149.553L125.629 149.423L125.264 103.883Z" fill="#014722"/>
<path d="M153.36 92.2668L137.131 92.3967L137.582 148.672L153.81 148.542L153.36 92.2668Z" fill="#017737"/>
<path d="M182.345 83.7539L166.117 83.8838L166.633 148.462L182.862 148.332L182.345 83.7539Z" fill="#014722"/>
<path d="M215.047 70.9216L198.818 71.0515L199.437 148.336L215.665 148.206L215.047 70.9216Z" fill="#017737"/>
<path d="M47.5986 14.7473H41.5601V150.949H47.5986V14.7473Z" fill="#EDEEF0"/>
<path d="M41.6235 148.383L41.6235 153.499L228.356 153.499L228.356 148.383L41.6235 148.383Z" fill="#EDEEF0"/>
<path d="M195.039 63.5281L60.808 118.462L59.2983 114.771L193.571 59.8379L195.039 63.5281Z" fill="#BD89F4"/>
<path d="M61.2693 117.371L60.3887 115.233L193.11 60.9282L193.949 63.0669L61.2693 117.371Z" fill="#BD89F4"/>
<path d="M212.475 57.8654C212.223 58.3267 211.804 58.7041 211.259 59.0395C210.714 59.3331 210.127 59.5008 209.372 59.5847V60.8427H208.407V59.5847C207.401 59.5008 206.562 59.1654 205.933 58.6621C205.304 58.117 204.969 57.4041 204.969 56.5235H207.275C207.317 57.2783 207.736 57.6977 208.407 57.8654V54.93C207.652 54.7623 207.065 54.5526 206.604 54.3849C206.143 54.2171 205.765 53.9236 205.43 53.5043C205.094 53.0849 204.927 52.5398 204.927 51.8269C204.927 50.9463 205.262 50.1915 205.891 49.6463C206.52 49.1012 207.359 48.7657 208.365 48.6818V47.4238H209.33V48.6818C210.294 48.7657 211.091 49.0593 211.678 49.5625C212.265 50.0657 212.601 50.7785 212.685 51.7011H210.378C210.336 51.4076 210.252 51.156 210.043 50.9043C209.875 50.6947 209.623 50.5269 209.33 50.4431V53.3365C210.085 53.5462 210.714 53.7139 211.133 53.8817C211.594 54.0494 211.972 54.3429 212.307 54.7623C212.643 55.1816 212.81 55.7268 212.81 56.4396C212.894 56.9009 212.768 57.4041 212.475 57.8654ZM207.527 52.4559C207.736 52.6656 208.03 52.8333 208.407 52.9591V50.3173C208.03 50.3592 207.736 50.5269 207.527 50.7366C207.317 50.9463 207.191 51.2818 207.191 51.6592C207.233 51.9527 207.317 52.2462 207.527 52.4559ZM210.336 57.3203C210.546 57.0687 210.672 56.7751 210.672 56.4396C210.672 56.1042 210.546 55.8106 210.336 55.6429C210.127 55.4332 209.833 55.2655 209.414 55.1397V57.8235C209.791 57.7396 210.127 57.5719 210.336 57.3203Z" fill="#BD89F4"/>
<path d="M209.162 40.0854C201.823 40.0854 195.869 46.0401 195.869 53.3785C195.869 60.717 201.823 66.6716 209.162 66.6716C216.5 66.6716 222.455 60.717 222.455 53.3785C222.455 46.0401 216.5 40.0854 209.162 40.0854ZM209.162 63.3588C203.668 63.3588 199.181 58.8719 199.181 53.3785C199.181 47.8852 203.668 43.3982 209.162 43.3982C214.655 43.3982 219.142 47.8852 219.142 53.3785C219.142 58.8719 214.655 63.3588 209.162 63.3588Z" fill="#BD89F4"/>
<path d="M6.81025 10.6476C6.81025 9.59813 7.39332 9.20944 7.89864 9.20944C8.55945 9.20944 8.98703 9.79249 8.98703 10.6088C8.98703 11.5806 8.44283 12.0081 7.89864 12.0081C7.16009 12.047 6.81025 11.3085 6.81025 10.6476ZM8.17074 8.00439C7.39332 8.00439 6.96573 8.35423 6.73251 8.58746C6.69364 8.39311 6.57703 8.12103 6.03283 8.12103H4.8667V9.32602H5.33313C5.41088 9.32602 5.44977 9.36491 5.44977 9.44265V15.0012H6.84912V12.9022C6.84912 12.8633 6.84912 12.7856 6.84912 12.7467C7.04347 12.9411 7.47105 13.2131 8.13186 13.2131C9.49234 13.2131 10.4253 12.1248 10.4253 10.6088C10.3864 9.05394 9.49236 8.00439 8.17074 8.00439Z" fill="white"/>
<path d="M7.62686 33.4649C9.77365 33.4649 11.514 31.7246 11.514 29.5778C11.514 27.431 9.77365 25.6907 7.62686 25.6907C5.48006 25.6907 3.73975 27.431 3.73975 29.5778C3.73975 31.7246 5.48006 33.4649 7.62686 33.4649Z" fill="white"/>
<path d="M7.62686 50.7625C9.77365 50.7625 11.514 49.0222 11.514 46.8754C11.514 44.7286 9.77365 42.9883 7.62686 42.9883C5.48006 42.9883 3.73975 44.7286 3.73975 46.8754C3.73975 49.0222 5.48006 50.7625 7.62686 50.7625Z" fill="white"/>
<path d="M7.62686 68.0213C9.77365 68.0213 11.514 66.281 11.514 64.1342C11.514 61.9874 9.77365 60.2471 7.62686 60.2471C5.48006 60.2471 3.73975 61.9874 3.73975 64.1342C3.73975 66.281 5.48006 68.0213 7.62686 68.0213Z" fill="white"/>
<path d="M7.62686 85.3189C9.77365 85.3189 11.514 83.5786 11.514 81.4318C11.514 79.285 9.77365 77.5447 7.62686 77.5447C5.48006 77.5447 3.73975 79.285 3.73975 81.4318C3.73975 83.5786 5.48006 85.3189 7.62686 85.3189Z" fill="white"/>
<path d="M7.62686 109.652C9.77365 109.652 11.514 107.912 11.514 105.765C11.514 103.618 9.77365 101.878 7.62686 101.878C5.48006 101.878 3.73975 103.618 3.73975 105.765C3.73975 107.912 5.48006 109.652 7.62686 109.652Z" fill="white"/>
<path d="M7.62686 127.261C9.77365 127.261 11.514 125.52 11.514 123.374C11.514 121.227 9.77365 119.487 7.62686 119.487C5.48006 119.487 3.73975 121.227 3.73975 123.374C3.73975 125.52 5.48006 127.261 7.62686 127.261Z" fill="white"/>
<path d="M7.62686 144.908C9.77365 144.908 11.514 143.168 11.514 141.021C11.514 138.875 9.77365 137.134 7.62686 137.134C5.48006 137.134 3.73975 138.875 3.73975 141.021C3.73975 143.168 5.48006 144.908 7.62686 144.908Z" fill="white"/>
<path d="M7.62686 162.517C9.77365 162.517 11.514 160.777 11.514 158.63C11.514 156.483 9.77365 154.743 7.62686 154.743C5.48006 154.743 3.73975 156.483 3.73975 158.63C3.73975 160.777 5.48006 162.517 7.62686 162.517Z" fill="white"/>
<path d="M2.34033 95.231H12.9132" stroke="white" stroke-width="0.397829" stroke-miterlimit="10"/>
<path d="M0.268066 158.985V4.00477C0.268066 1.78855 2.05517 0 4.26964 0H16.624V167.85H9.12592C4.23079 167.85 0.268066 163.884 0.268066 158.985Z" fill="#014722"/>
<path d="M7.97578 8.04314C7.97578 6.99362 8.55885 6.60491 9.06417 6.60491C9.72498 6.60491 10.1526 7.18797 10.1526 8.00427C10.1526 8.97604 9.60837 9.40362 9.06417 9.40362C8.28675 9.4425 7.97578 8.70394 7.97578 8.04314ZM9.33627 5.3999C8.55885 5.3999 8.13127 5.74974 7.89804 5.98297C7.85917 5.78861 7.74255 5.51652 7.19836 5.51652H6.03223V6.72152H6.49868C6.57642 6.72152 6.61529 6.76039 6.61529 6.83813V12.3967H8.01465V10.2977C8.01465 10.2588 8.01465 10.181 8.01465 10.1422C8.20901 10.3365 8.63659 10.6086 9.2974 10.6086C10.6579 10.6086 11.5908 9.52024 11.5908 8.00427C11.5519 6.44942 10.6579 5.3999 9.33627 5.3999Z" fill="white"/>
<path d="M8.79238 30.8604C10.9392 30.8604 12.6795 29.1201 12.6795 26.9733C12.6795 24.8265 10.9392 23.0862 8.79238 23.0862C6.64559 23.0862 4.90527 24.8265 4.90527 26.9733C4.90527 29.1201 6.64559 30.8604 8.79238 30.8604Z" fill="white"/>
<path d="M8.79238 48.158C10.9392 48.158 12.6795 46.4177 12.6795 44.2709C12.6795 42.1241 10.9392 40.3838 8.79238 40.3838C6.64559 40.3838 4.90527 42.1241 4.90527 44.2709C4.90527 46.4177 6.64559 48.158 8.79238 48.158Z" fill="white"/>
<path d="M8.79238 65.4168C10.9392 65.4168 12.6795 63.6765 12.6795 61.5297C12.6795 59.3829 10.9392 57.6426 8.79238 57.6426C6.64559 57.6426 4.90527 59.3829 4.90527 61.5297C4.90527 63.6765 6.64559 65.4168 8.79238 65.4168Z" fill="white"/>
<path d="M8.79238 82.7144C10.9392 82.7144 12.6795 80.9741 12.6795 78.8273C12.6795 76.6805 10.9392 74.9402 8.79238 74.9402C6.64559 74.9402 4.90527 76.6805 4.90527 78.8273C4.90527 80.9741 6.64559 82.7144 8.79238 82.7144Z" fill="white"/>
<path d="M8.79238 107.048C10.9392 107.048 12.6795 105.307 12.6795 103.161C12.6795 101.014 10.9392 99.2734 8.79238 99.2734C6.64559 99.2734 4.90527 101.014 4.90527 103.161C4.90527 105.307 6.64559 107.048 8.79238 107.048Z" fill="white"/>
<path d="M8.79238 124.656C10.9392 124.656 12.6795 122.916 12.6795 120.769C12.6795 118.622 10.9392 116.882 8.79238 116.882C6.64559 116.882 4.90527 118.622 4.90527 120.769C4.90527 122.916 6.64559 124.656 8.79238 124.656Z" fill="white"/>
<path d="M8.79238 142.304C10.9392 142.304 12.6795 140.564 12.6795 138.417C12.6795 136.27 10.9392 134.53 8.79238 134.53C6.64559 134.53 4.90527 136.27 4.90527 138.417C4.90527 140.564 6.64559 142.304 8.79238 142.304Z" fill="white"/>
<path d="M8.79238 159.912C10.9392 159.912 12.6795 158.172 12.6795 156.025C12.6795 153.879 10.9392 152.138 8.79238 152.138C6.64559 152.138 4.90527 153.879 4.90527 156.025C4.90527 158.172 6.64559 159.912 8.79238 159.912Z" fill="white"/>
<path d="M3.50586 92.6265H14.0788" stroke="white" stroke-width="0.397829" stroke-miterlimit="10"/>
</svg>
