<svg width="121" height="177" viewBox="0 0 121 177" fill="none" xmlns="http://www.w3.org/2000/svg">
<path d="M0.178848 5.86026C0.377816 8.79905 2.92147 11.0201 5.86026 10.8212C8.79905 10.6222 11.0201 8.07853 10.8212 5.13974C10.6222 2.20095 8.07853 -0.02012 5.13974 0.178848C2.20095 0.377816 -0.02012 2.92147 0.178848 5.86026ZM120.707 169.707C121.098 169.317 121.098 168.683 120.707 168.293L114.343 161.929C113.953 161.538 113.319 161.538 112.929 161.929C112.538 162.319 112.538 162.953 112.929 163.343L118.586 169L112.929 174.657C112.538 175.047 112.538 175.681 112.929 176.071C113.319 176.462 113.953 176.462 114.343 176.071L120.707 169.707ZM5.5 6.5C6.90949 6.5 8.28059 6.55921 9.6148 6.67511L9.78787 4.68261C8.39443 4.56157 6.96556 4.5 5.5 4.5V6.5ZM17.5246 8.12527C20.1695 8.88792 22.6527 9.90743 24.9903 11.1592L25.9344 9.39603C23.4744 8.07877 20.8606 7.00573 18.0787 6.20356L17.5246 8.12527ZM31.681 15.6672C33.735 17.3618 35.6637 19.2655 37.4812 21.3561L38.9906 20.0439C37.1079 17.8784 35.101 15.8959 32.9537 14.1245L31.681 15.6672ZM42.3951 27.8352C43.871 30.0488 45.2644 32.3983 46.5862 34.8657L48.3492 33.9213C47.0009 31.4044 45.5749 28.999 44.0592 26.7257L42.3951 27.8352ZM50.1929 42.2555C51.2918 44.7172 52.3381 47.2623 53.3407 49.8763L55.208 49.1601C54.1944 46.5172 53.1345 43.9387 52.0192 41.4402L50.1929 42.2555ZM56.1355 57.6438C57.0079 60.2192 57.8485 62.8421 58.6648 65.5005L60.5767 64.9133C59.7557 62.2398 58.9092 59.5984 58.0298 57.0022L56.1355 57.6438ZM61.0083 73.4283C61.7625 76.0686 62.5005 78.7301 63.2292 81.4018L65.1587 80.8755C64.4286 78.1986 63.6884 75.5291 62.9314 72.8789L61.0083 73.4283ZM65.3853 89.4021C66.101 92.0774 66.8145 94.7526 67.532 97.4132L69.463 96.8925C68.7462 94.2344 68.0335 91.5625 67.3174 88.8853L65.3853 89.4021ZM69.7254 105.42C70.478 108.112 71.2425 110.778 72.0264 113.405L73.9429 112.834C73.1631 110.22 72.4018 107.565 71.6515 104.882L69.7254 105.42ZM74.5045 121.347C75.384 124.029 76.2939 126.655 77.2433 129.21L79.118 128.513C78.1791 125.987 77.2777 123.386 76.405 120.724L74.5045 121.347ZM80.347 136.941C81.4891 139.563 82.6905 142.082 83.9633 144.477L85.7294 143.539C84.4843 141.195 83.305 138.724 82.1806 136.143L80.347 136.941ZM88.2927 151.695C89.9223 154.084 91.6622 156.291 93.5305 158.284L94.9897 156.917C93.2011 155.008 91.5247 152.884 89.9451 150.568L88.2927 151.695ZM99.9182 163.858C102.252 165.484 104.755 166.818 107.448 167.824L108.147 165.95C105.619 165.006 103.264 163.752 101.061 162.217L99.9182 163.858ZM115.703 169.768C117.094 169.922 118.526 170 120 170L120 168C118.597 168 117.239 167.925 115.923 167.78L115.703 169.768Z" fill="#AAD2BC"/>
</svg>
