<svg width="119" height="26" viewBox="0 0 119 26" fill="none" xmlns="http://www.w3.org/2000/svg">
<path fill-rule="evenodd" clip-rule="evenodd" d="M20.129 4.80245C21.392 4.80245 22.416 3.7792 22.416 2.51695C22.416 1.25471 21.392 0.231445 20.129 0.231445C18.8658 0.231445 17.8418 1.25471 17.8418 2.51695C17.8418 3.7792 18.8658 4.80245 20.129 4.80245Z" fill="white"/>
<path fill-rule="evenodd" clip-rule="evenodd" d="M22.1829 5.94727H18.0767V20.0254H22.1829V5.94727Z" fill="white"/>
<path fill-rule="evenodd" clip-rule="evenodd" d="M86.2085 4.80245C87.4716 4.80245 88.4956 3.7792 88.4956 2.51695C88.4956 1.25471 87.4716 0.231445 86.2085 0.231445C84.9454 0.231445 83.9214 1.25471 83.9214 2.51695C83.9214 3.7792 84.9454 4.80245 86.2085 4.80245Z" fill="white"/>
<path fill-rule="evenodd" clip-rule="evenodd" d="M88.2623 5.94727H84.1562V20.0254H88.2623V5.94727Z" fill="white"/>
<path fill-rule="evenodd" clip-rule="evenodd" d="M118.123 12.5221C118.123 8.50376 114.917 5.6377 111.064 5.6377C106.734 5.6377 103.584 8.64446 103.584 12.9721C103.584 17.2439 106.537 20.3065 111.064 20.3065C114.917 20.3065 117.476 17.9183 117.953 15.2766H113.988C113.538 16.4289 112.216 17.0754 110.98 17.0754C109.321 17.0474 108.083 16.0638 107.719 13.9279H118.094L118.123 12.5221ZM107.802 11.3698C108.253 9.29095 109.799 8.78517 111.063 8.78517C112.358 8.78517 113.876 9.43165 114.072 11.3698H107.802Z" fill="white"/>
<path fill-rule="evenodd" clip-rule="evenodd" d="M100.547 5.94727H104.765L99.0279 20.0254H94.6988L88.9614 5.94727H93.377L96.9478 15.2756L100.547 5.94727Z" fill="white"/>
<path fill-rule="evenodd" clip-rule="evenodd" d="M77.967 8.19425C78.9235 6.7048 80.4419 5.74902 82.1848 5.74902C82.4943 5.74902 82.8875 5.77691 83.1412 5.86185V9.71158C82.8038 9.65581 82.4384 9.62792 82.101 9.62792C79.4575 9.62792 78.0799 11.5674 78.0799 14.3485V20.0249H74.003V9.65581C74.003 9.43144 73.918 9.3744 73.6656 9.3744H72.2588V5.94677H75.8017C77.2363 5.94677 77.967 6.62115 77.967 7.88622V8.19425Z" fill="white"/>
<path fill-rule="evenodd" clip-rule="evenodd" d="M71.5272 16.5962C71.3028 16.5962 71.2456 16.5404 71.2456 16.3148V2.26584C71.2456 0.861326 70.515 0.214844 69.0246 0.214844H65.4537V3.61458H66.7754C67.0279 3.61458 67.1129 3.69824 67.1129 3.92388V7.23995C66.5789 6.53769 65.0884 5.63769 63.0918 5.63769C59.1264 5.63769 56.2305 8.64447 56.2305 12.972C56.2305 17.3834 59.0148 20.3065 62.9789 20.3065C65.2 20.3065 66.7754 19.1821 67.3653 18.2555C67.4211 18.8741 67.8435 20.0264 69.3619 20.0264H72.9898V16.5987H71.5272V16.5962ZM63.8224 16.9334C61.8537 16.9334 60.4204 15.4161 60.4204 12.9709C60.4204 10.6385 61.8829 9.06531 63.8503 9.06531C66.0715 9.06531 67.1966 11.0326 67.1966 12.9429C67.1966 15.9218 65.3979 16.9334 63.8224 16.9334Z" fill="white"/>
<path fill-rule="evenodd" clip-rule="evenodd" d="M55.3297 12.5221C55.3297 8.50376 52.1242 5.6377 48.2718 5.6377C43.9412 5.6377 40.7915 8.64446 40.7915 12.9721C40.7915 17.2439 43.7446 20.3065 48.2718 20.3065C52.1242 20.3065 54.6828 17.9183 55.161 15.2766H51.1957C50.7454 16.4289 49.4236 17.0754 48.1868 17.0754C46.5276 17.0474 45.2909 16.0638 44.9255 13.9279H55.3018L55.3297 12.5221ZM45.0105 11.3698C45.4608 9.29095 47.0071 8.78517 48.2718 8.78517C49.5656 8.78517 51.084 9.43165 51.2807 11.3698H45.0105Z" fill="white"/>
<path fill-rule="evenodd" clip-rule="evenodd" d="M33.2568 5.6377C30.9508 5.6377 29.3195 6.84572 28.7017 7.88516C28.5888 7.29446 28.1956 5.94572 26.6214 5.94572H23.1914V9.37461H24.5969C24.8493 9.37461 24.9064 9.43039 24.9064 9.65602V25.7851H29.0125V19.5472L28.9846 18.5356C29.5744 19.5193 31.15 20.3065 33.0615 20.3065C37.0827 20.3065 39.8949 17.3276 39.8949 12.9721C39.8924 8.58742 37.2209 5.6377 33.2568 5.6377ZM32.2154 16.9333C29.9943 16.9333 28.9249 14.9382 28.9249 13.0279C28.9249 10.106 30.6971 9.06531 32.2713 9.06531C34.1829 9.06531 35.7013 10.6675 35.7013 12.9987C35.7025 15.7533 33.8467 16.9333 32.2154 16.9333Z" fill="white"/>
<path fill-rule="evenodd" clip-rule="evenodd" d="M17.1152 12.9718C17.1152 17.3273 14.3029 20.3062 10.2818 20.3062C8.37015 20.3062 6.79468 19.519 6.20484 18.5354L6.23274 19.5469V25.7848H2.12789V9.65573C2.12789 9.43136 2.07208 9.37432 1.81839 9.37432H0.411621V5.94671H3.8429C5.4171 5.94671 5.8116 7.29544 5.92323 7.88615C6.54226 6.84671 8.17226 5.63867 10.4784 5.63867C14.4437 5.6374 17.1152 8.58714 17.1152 12.9718ZM12.9253 12.9997C12.9253 10.6673 11.4069 9.0663 9.49404 9.0663C7.91983 9.0663 6.14775 10.1057 6.14775 13.0288C6.14775 14.9391 7.21583 16.9344 9.43823 16.9344C11.0695 16.9331 12.9253 15.7529 12.9253 12.9997Z" fill="white"/>
</svg>
